<?xml version="1.0" standalone="no"?>
<!DOCTYPE svg PUBLIC "-//W3C//DTD SVG 20010904//EN"
 "http://www.w3.org/TR/2001/REC-SVG-20010904/DTD/svg10.dtd">
<svg version="1.0" xmlns="http://www.w3.org/2000/svg"
 width="512.000000pt" height="512.000000pt" viewBox="0 0 512.000000 512.000000"
 preserveAspectRatio="xMidYMid meet">
<metadata>
Created by potrace 1.11, written by Peter Selinger 2001-2013
</metadata>
<g transform="translate(0.000000,512.000000) scale(0.100000,-0.100000)"
fill="#000000" stroke="none">
<path d="M311 5104 c-1 -11 -4 -24 -8 -28 -4 -4 -8 -32 -8 -63 0 -37 -5 -58
-15 -66 -11 -9 -15 -34 -17 -87 -1 -80 -26 -153 -38 -114 -10 30 -21 48 -32
51 -12 4 -4 -57 10 -75 8 -11 7 -16 -6 -23 -9 -6 -17 -17 -17 -24 0 -18 12
-19 28 -3 20 20 40 -7 24 -32 -7 -11 -9 -20 -5 -20 5 0 7 -20 5 -45 -3 -30 -9
-45 -18 -45 -8 0 -14 -4 -14 -10 0 -5 6 -10 14 -10 11 0 14 -12 10 -52 -5 -62
-22 -101 -41 -94 -16 7 -17 -6 -1 -22 15 -15 21 -89 8 -97 -6 -3 -10 -17 -10
-31 0 -21 -2 -23 -20 -12 -10 7 -17 14 -15 17 3 2 -4 11 -16 19 -28 20 -43 4
-29 -32 5 -15 7 -38 4 -52 -4 -14 -2 -24 5 -24 6 0 11 -7 11 -15 0 -8 -7 -15
-15 -15 -21 0 -19 -17 5 -47 20 -26 27 -53 12 -53 -4 0 -12 10 -17 22 -11 24
-51 42 -60 28 -4 -6 3 -10 14 -10 32 0 25 -28 -9 -35 -16 -4 -30 -11 -30 -17
0 -6 10 -8 25 -4 27 7 42 -13 55 -71 11 -47 -26 -55 -72 -15 -12 10 -18 11
-18 3 0 -6 11 -17 25 -23 29 -13 38 -65 9 -54 -13 5 -14 1 -9 -25 6 -25 4 -31
-14 -36 -13 -3 -21 -13 -21 -26 0 -20 1 -20 13 -2 18 24 37 11 37 -25 0 -19 7
-33 20 -40 16 -9 19 -17 15 -43 -7 -40 -21 -55 -36 -40 -8 8 -8 13 0 17 13 8
14 45 3 63 -4 7 -17 10 -30 6 -12 -3 -19 -9 -16 -15 3 -5 15 -6 26 -2 17 5 20
3 15 -11 -4 -9 -7 -20 -7 -25 0 -5 -7 -16 -16 -24 -8 -9 -18 -32 -21 -51 -5
-30 -2 -36 18 -44 16 -6 29 -5 38 2 10 9 13 7 9 -8 -2 -14 -12 -20 -28 -20
-20 0 -25 -6 -26 -25 -1 -14 -4 -32 -8 -41 -5 -11 -1 -19 8 -22 9 -4 16 -18
16 -33 0 -23 2 -25 16 -13 8 7 13 21 11 31 -3 12 0 18 10 18 14 0 14 2 0 18
-19 21 -22 38 -8 46 13 8 42 -4 35 -15 -3 -5 2 -9 10 -9 20 0 20 17 1 36 -11
11 -12 20 -5 34 13 25 13 30 -4 30 -24 0 -27 17 -9 49 20 34 49 46 58 23 3 -8
8 -12 11 -9 3 3 -1 15 -8 27 -11 18 -11 23 5 34 18 14 25 52 7 41 -6 -4 -29
-4 -50 0 -49 8 -52 27 -11 65 16 16 31 34 34 41 4 10 8 11 14 3 9 -13 53 -28
53 -19 0 12 -26 33 -45 36 -13 3 -18 14 -19 42 -1 23 4 37 12 37 6 0 12 -4 12
-10 0 -5 7 -10 15 -10 8 0 15 -5 15 -11 0 -5 5 -7 11 -4 7 5 5 13 -5 24 -25
27 -20 44 9 37 21 -5 25 -3 25 15 0 19 -5 20 -47 17 -38 -2 -48 0 -48 12 0 8
10 19 23 25 30 13 33 70 2 60 -17 -5 -20 -2 -20 26 0 31 1 32 15 13 12 -16 14
-17 15 -3 0 9 11 27 24 40 17 16 22 27 15 35 -14 17 0 112 18 118 8 3 23 1 34
-4 16 -9 19 -7 19 15 0 24 -7 29 -41 26 -16 -2 -16 0 10 157 1 2 9 1 19 -2 13
-4 20 3 30 32 21 60 25 82 14 82 -5 0 -13 -10 -16 -22 -7 -22 -7 -22 -17 -3
-7 15 -8 12 -3 -12 6 -34 -9 -46 -20 -17 -13 34 -6 141 9 154 9 7 12 17 7 22
-12 12 9 128 24 128 7 0 16 -4 19 -10 3 -5 10 -10 16 -10 16 0 10 29 -12 51
-14 14 -18 26 -13 37 4 9 8 37 8 62 1 44 2 45 34 45 28 0 32 3 28 20 -3 11 -6
23 -6 26 0 4 -9 9 -20 12 -11 3 -24 16 -29 29 -9 21 -10 22 -10 2z m-181
-1449 c0 -8 -4 -15 -10 -15 -5 0 -10 7 -10 15 0 8 5 15 10 15 6 0 10 -7 10
-15z"/>
<path d="M720 5073 c-18 -73 -52 -154 -64 -158 -34 -10 -70 -16 -64 -10 3 4 2
20 -4 37 l-11 31 -12 -29 c-7 -16 -10 -33 -7 -38 2 -4 -1 -12 -8 -16 -28 -18
1 -27 47 -15 26 7 49 12 50 11 5 -5 -22 -56 -29 -56 -5 0 -8 -12 -8 -26 0 -31
-37 -180 -51 -207 -8 -14 -13 -16 -25 -6 -9 7 -14 8 -14 1 0 -6 7 -15 16 -20
12 -7 14 -15 8 -33 -4 -13 -7 -31 -6 -39 4 -28 -28 -104 -55 -132 -32 -33 -40
-68 -17 -68 12 0 15 -6 10 -25 -13 -51 -26 -75 -42 -75 -12 0 -15 -6 -10 -24
7 -30 -7 -41 -27 -21 -12 11 -14 28 -10 70 4 38 2 55 -6 55 -6 0 -11 -9 -11
-21 0 -13 -8 -23 -20 -26 -19 -5 -20 -7 -5 -23 11 -12 13 -20 6 -25 -8 -4 -6
-11 4 -21 17 -18 20 -40 5 -49 -20 -12 -10 -27 16 -22 25 4 25 3 19 -37 -6
-36 -18 -81 -33 -126 -3 -8 -4 -19 -3 -23 4 -21 -33 -124 -51 -139 -25 -22
-48 -23 -48 -4 0 8 -4 18 -10 21 -7 4 -7 -2 0 -19 5 -13 7 -48 5 -76 -4 -46
-3 -51 10 -40 9 7 18 10 21 7 11 -10 -7 -47 -23 -47 -12 0 -14 -10 -11 -45 3
-41 1 -45 -19 -45 -14 0 -23 -6 -23 -15 0 -8 6 -12 14 -9 8 3 17 1 20 -5 10
-16 -43 -243 -61 -263 -12 -13 -13 -22 -6 -29 7 -7 4 -18 -12 -35 -20 -21 -29
-24 -59 -18 -34 6 -36 5 -36 -21 0 -24 2 -26 16 -14 11 9 17 10 23 1 5 -8 14
-7 35 3 35 18 36 18 36 0 0 -8 -7 -15 -16 -15 -13 0 -14 -3 -5 -14 16 -19 10
-98 -7 -104 -7 -2 -16 5 -19 16 -3 13 -11 18 -19 15 -20 -7 -17 -40 3 -52 27
-15 11 -22 -17 -8 -30 15 -38 58 -16 80 22 21 20 25 -9 19 -17 -3 -25 -11 -25
-24 0 -14 -5 -18 -15 -14 -20 7 -20 -20 0 -32 14 -7 14 -11 0 -38 -8 -16 -15
-23 -15 -16 0 6 -4 12 -10 12 -5 0 -10 -20 -10 -45 0 -40 3 -45 23 -45 17 0
19 -2 7 -10 -24 -15 -8 -19 44 -9 27 5 51 7 54 4 9 -8 -38 -259 -50 -266 -6
-4 -17 -5 -25 -2 -7 3 -13 -2 -13 -11 0 -19 -11 -21 -28 -4 -9 9 -12 2 -12
-33 1 -35 3 -40 11 -26 13 23 36 22 44 -3 9 -28 0 -38 -30 -32 l-25 4 4 -102
c2 -56 6 -103 8 -105 2 -2 15 -5 30 -7 35 -5 58 -26 58 -54 0 -34 -36 -33 -44
1 -4 14 -12 25 -20 25 -24 0 -36 -26 -34 -73 1 -25 5 -41 9 -35 8 12 39 4 39
-11 0 -5 -11 -12 -25 -15 -22 -6 -25 -12 -25 -51 0 -25 6 -54 12 -65 10 -16
10 -24 0 -40 -6 -11 -12 -49 -12 -84 0 -51 4 -67 17 -75 17 -9 17 -10 0 -28
-21 -24 -22 -33 -1 -33 12 0 15 -8 12 -34 -3 -24 0 -32 9 -29 6 3 9 11 6 19
-3 9 2 14 16 14 22 0 45 33 37 53 -3 8 -5 8 -5 -2 -1 -11 -4 -11 -16 -1 -20
16 -19 36 1 44 22 9 24 8 24 -9 0 -8 5 -15 10 -15 6 0 10 -7 10 -15 0 -8 5
-15 10 -15 17 0 11 -22 -8 -26 -20 -6 -43 -49 -32 -61 4 -4 10 -38 13 -75 l5
-68 -54 0 -54 0 0 -45 c0 -41 2 -45 24 -45 13 0 29 7 36 15 13 15 14 14 -35
30 -28 9 -15 25 21 25 21 0 33 -4 29 -10 -3 -5 -3 -16 2 -22 12 -20 12 -38 1
-38 -6 0 -7 -11 -4 -26 6 -24 -11 -84 -24 -84 -10 0 -38 38 -43 57 -3 13 -5
11 -6 -7 0 -14 6 -34 14 -44 19 -25 19 -40 0 -32 -18 6 -20 -5 -4 -21 9 -9 9
-20 0 -44 -6 -17 -11 -48 -10 -68 l1 -36 15 43 c8 23 19 42 24 42 5 0 9 9 9
20 0 23 4 24 31 10 27 -15 25 -40 -3 -32 -23 5 -23 5 -5 -16 18 -20 18 -21 -2
-41 -12 -12 -28 -21 -36 -21 -8 0 -15 -7 -15 -15 0 -8 -4 -15 -10 -15 -5 0
-10 -4 -10 -9 0 -6 16 -3 35 5 l35 14 0 -35 c0 -25 4 -33 14 -29 8 3 17 1 21
-5 3 -6 0 -11 -8 -11 -8 0 -13 -10 -13 -22 1 -16 -4 -23 -16 -22 -10 1 -18 -3
-18 -8 0 -6 -11 -8 -25 -6 -23 5 -25 2 -25 -28 0 -19 5 -34 11 -34 6 0 8 7 5
16 -5 13 -1 15 17 10 12 -3 35 1 51 9 18 10 41 13 67 9 24 -4 39 -3 39 4 0 6
3 17 6 26 4 10 1 16 -9 16 -10 0 -13 -7 -10 -20 7 -26 -9 -26 -33 1 -17 19
-18 22 -2 50 13 23 14 29 4 29 -20 0 -28 47 -14 78 11 22 20 27 48 26 18 0 36
-6 38 -14 3 -7 0 -10 -6 -6 -8 5 -11 -9 -9 -44 1 -35 -1 -49 -10 -46 -22 9
-20 -19 4 -37 28 -22 83 -141 83 -180 0 -9 -115 -6 -247 7 -18 1 -33 -1 -33
-5 0 -20 48 -29 166 -30 l92 0 31 -36 c26 -29 31 -42 26 -65 -6 -23 -2 -33 19
-49 18 -14 25 -27 21 -39 -3 -10 0 -20 9 -23 11 -4 14 -15 9 -39 -3 -18 -5
-48 -5 -65 0 -18 -4 -33 -9 -33 -5 0 -9 7 -9 15 0 8 -6 15 -14 15 -21 0 -29
-17 -11 -24 23 -8 19 -46 -5 -46 -23 0 -24 -4 -10 -31 6 -11 21 -19 36 -19 20
0 24 -4 19 -19 -3 -12 0 -21 9 -24 8 -3 18 -22 22 -42 3 -19 10 -38 15 -41 14
-8 11 23 -6 63 -20 48 -19 54 10 47 31 -8 32 2 2 26 l-22 18 27 7 c32 8 34 21
14 70 -13 29 -13 35 -1 35 7 0 16 -6 18 -12 4 -9 6 -8 6 2 1 8 -13 23 -29 32
-23 13 -30 24 -30 47 0 16 4 33 10 36 5 3 10 13 10 21 0 12 -4 12 -20 4 -26
-14 -40 -5 -40 23 0 12 -9 39 -20 60 -11 20 -20 49 -20 64 0 16 -9 43 -20 61
-32 52 -18 88 17 45 9 -11 12 -12 7 -3 -4 8 -14 23 -23 33 -14 17 -14 19 2 28
20 12 13 31 -8 22 -8 -3 -15 0 -15 7 0 6 -5 8 -10 5 -6 -4 -8 -16 -4 -28 4
-16 3 -19 -5 -12 -16 15 -29 98 -20 123 12 33 109 44 109 12 0 -5 -9 -10 -20
-10 -11 0 -20 -5 -20 -11 0 -8 12 -10 36 -6 36 6 36 6 30 -23 -7 -36 0 -38 23
-8 22 26 51 18 51 -14 0 -17 3 -19 9 -9 6 9 18 11 35 7 27 -7 35 -31 13 -39
-9 -4 -8 -8 3 -16 18 -12 25 -2 34 52 5 29 3 39 -9 43 -14 6 -14 9 -2 23 8 9
18 27 22 39 6 21 5 23 -13 13 -12 -6 -23 -11 -26 -11 -11 0 -6 36 8 55 14 19
15 19 35 1 20 -19 21 -18 39 24 18 42 18 100 1 100 -8 0 -10 -5 -13 -36 -2
-14 -26 -44 -36 -44 -14 0 -42 52 -44 84 -2 17 -4 37 -5 44 0 7 -5 10 -11 7
-5 -3 -10 -1 -10 4 0 6 5 11 10 11 6 0 8 11 4 25 -4 15 -2 25 5 25 6 0 11 -4
11 -10 0 -5 4 -10 9 -10 11 0 -6 70 -20 85 -21 21 -9 51 24 63 43 15 47 15 47
-3 0 -8 7 -15 15 -15 8 0 15 7 15 15 0 7 7 18 16 23 14 8 14 11 -3 27 -13 13
-14 20 -5 23 6 2 12 19 12 37 0 37 16 56 23 28 3 -12 5 -8 6 9 1 31 11 40 31
28 18 -11 20 -48 3 -55 -10 -3 -13 -16 -11 -37 2 -24 -1 -33 -12 -33 -8 0 -15
-7 -16 -15 -3 -44 -5 -50 -19 -50 -8 0 -15 -5 -15 -11 0 -11 -16 -9 -52 6 -25
10 -47 -34 -25 -50 13 -9 14 -14 4 -24 -9 -9 -9 -14 3 -21 22 -14 31 30 11 54
-15 18 -15 19 2 13 10 -4 21 -7 23 -7 2 0 4 -13 4 -30 0 -16 6 -35 13 -42 8
-6 12 -23 9 -37 -2 -15 0 -21 5 -15 15 20 41 23 63 7 21 -15 25 -13 97 60 64
65 74 78 62 90 -8 7 -19 12 -26 10 -7 -3 -13 8 -15 24 -2 22 -9 29 -30 31 -32
4 -36 16 -11 31 12 6 26 5 46 -6 24 -12 28 -19 23 -41 -4 -17 -3 -22 2 -14 7
10 11 10 22 -3 19 -23 43 -18 79 19 29 30 31 35 17 49 -9 9 -24 13 -37 10 -21
-6 -21 -7 6 -20 31 -17 20 -39 -14 -28 -16 5 -22 18 -27 58 -4 29 -9 46 -11
40 -7 -20 -20 -15 -26 8 -5 20 -7 20 -22 6 -12 -13 -14 -21 -5 -37 18 -34 -6
-22 -49 25 -40 44 -45 65 -16 65 8 0 19 -9 25 -21 7 -11 14 -18 17 -15 3 3 0
12 -7 21 -11 13 -9 19 6 38 11 12 25 26 32 32 7 6 11 21 10 35 -2 17 2 25 12
25 10 0 17 -14 21 -40 3 -22 7 -30 8 -18 0 12 6 25 11 28 16 10 40 -14 41 -39
0 -20 1 -20 10 2 7 19 4 28 -16 46 -14 13 -25 31 -25 40 0 20 5 20 35 0 15
-10 25 -12 25 -5 0 6 -3 11 -7 11 -19 1 -33 18 -27 34 4 11 13 15 25 11 11 -4
19 -2 19 4 0 6 -18 14 -41 17 -32 5 -39 10 -34 23 17 39 23 73 18 87 -9 23
-26 11 -35 -24 -8 -31 -28 -45 -28 -19 0 11 -59 52 -65 45 -1 -2 -6 -13 -9
-25 -6 -18 -4 -22 8 -17 20 8 20 0 -1 -34 l-17 -27 22 19 c12 11 22 25 22 33
0 8 4 12 9 9 5 -3 7 -29 5 -58 -2 -33 1 -55 8 -59 9 -6 9 -14 -2 -33 -15 -29
-35 -34 -44 -11 -3 8 -12 15 -21 15 -13 0 -15 7 -10 34 6 28 3 36 -13 45 -27
14 -35 14 -26 -1 5 -10 4 -10 -6 -1 -11 10 -9 16 13 33 15 12 24 27 21 35 -3
8 0 30 6 50 11 33 10 39 -11 61 l-22 24 22 0 c26 0 91 -60 91 -84 0 -24 19
-20 30 7 27 64 108 100 140 62 10 -12 10 -15 -3 -15 -8 0 -20 -7 -27 -15 -11
-13 -8 -15 13 -15 14 0 27 6 30 13 9 24 20 -3 21 -50 0 -27 5 -51 10 -55 6 -4
5 -13 -3 -22 -9 -11 -10 -16 -2 -16 6 0 11 5 11 11 0 5 5 7 10 4 6 -3 10 -15
10 -25 0 -11 9 -24 20 -30 11 -6 20 -20 20 -30 0 -11 6 -20 13 -20 18 -1 70
-88 63 -106 -8 -21 -26 -8 -26 20 0 25 -22 51 -33 39 -12 -11 -7 -61 6 -66 8
-3 7 -10 -7 -26 -11 -11 -15 -21 -11 -21 13 0 99 43 106 52 3 5 -9 25 -27 45
-41 44 -61 121 -37 138 8 6 14 20 12 30 -4 17 -5 18 -21 2 -17 -18 -53 -23
-62 -9 -3 5 1 30 9 56 10 31 11 54 6 65 -9 15 -10 14 -16 -2 -11 -28 -28 -20
-20 11 3 15 9 30 13 34 9 8 192 18 193 9 0 -3 2 -14 4 -23 2 -9 -3 -19 -10
-22 -8 -3 -19 -14 -25 -26 -10 -19 -10 -20 9 -8 12 7 21 17 21 22 0 4 6 4 13
-1 6 -6 39 -13 71 -16 72 -7 108 -35 88 -67 -14 -24 -7 -26 14 -5 19 19 33 19
40 0 7 -17 -21 -61 -30 -46 -4 5 -13 8 -20 5 -8 -3 -17 -1 -21 5 -3 6 -19 11
-34 11 -18 0 -34 8 -44 23 -9 12 -16 17 -16 10 -1 -6 4 -15 9 -18 8 -5 8 -11
0 -20 -8 -10 -5 -14 14 -19 13 -3 26 -15 29 -27 5 -17 11 -20 31 -17 14 3 27
0 29 -6 5 -15 63 6 59 23 -4 21 18 50 38 48 11 -1 20 -7 20 -14 0 -19 12 -16
50 12 19 14 44 25 57 25 13 0 23 5 23 11 0 7 -10 9 -25 7 -27 -6 -43 6 -25 17
8 5 8 11 0 20 -6 8 -10 28 -8 46 l3 32 95 -3 c52 -1 108 -3 124 -4 16 0 31 5
33 12 4 9 -25 12 -121 12 -124 0 -126 0 -126 23 1 12 11 35 24 50 26 33 25 79
-3 75 -9 -2 -15 2 -14 9 2 7 7 72 13 146 11 147 23 225 36 236 14 12 134 61
150 61 8 0 14 -3 14 -8 0 -4 9 -13 21 -20 20 -13 21 -12 14 17 -4 19 -3 31 3
31 14 0 40 52 34 68 -2 7 -16 12 -30 12 -23 -1 -25 -2 -9 -11 35 -21 5 -29
-86 -23 -77 6 -90 4 -79 -7 7 -7 33 -14 59 -14 27 -1 48 -6 51 -13 4 -12 -71
-49 -119 -59 -26 -5 -26 -5 -22 54 6 81 61 290 63 236 0 -7 5 -13 11 -13 6 0
8 7 5 16 -4 12 -1 14 14 9 14 -5 20 -2 20 9 0 11 -9 16 -26 16 -33 0 -27 24 7
28 15 2 32 -5 44 -18 17 -18 17 -20 1 -20 -9 0 -14 -4 -11 -10 3 -5 13 -10 21
-10 11 0 13 11 8 58 -4 31 -8 58 -9 60 -7 8 -34 -12 -38 -30 -3 -11 -10 -17
-16 -13 -15 9 -14 35 2 35 6 0 1 6 -13 14 -21 11 -28 11 -43 -3 -15 -12 -22
-13 -38 -3 -25 16 -39 8 -32 -18 3 -11 0 -20 -6 -20 -6 0 -11 7 -11 15 0 8 -7
15 -16 15 -10 0 -14 6 -10 15 3 9 0 15 -10 15 -11 0 -14 6 -10 16 3 9 6 20 6
25 0 5 11 9 25 9 14 0 25 4 25 9 0 11 -59 9 -77 -2 -6 -4 -15 -3 -18 3 -9 14
15 42 30 36 9 -3 11 2 7 16 -4 16 -10 19 -34 14 -38 -7 -67 17 -51 43 6 9 19
15 29 13 18 -3 18 -3 0 11 -11 8 -16 19 -12 26 6 9 11 9 22 0 7 -6 21 -8 30
-5 14 5 15 1 10 -28 -6 -32 -5 -35 26 -41 18 -4 39 -12 46 -17 8 -7 12 -7 12
1 0 6 -11 16 -24 21 -14 5 -25 19 -28 35 -4 20 -2 25 9 20 12 -4 14 0 9 19 -4
15 -1 26 6 29 7 2 4 3 -6 1 -23 -4 -45 22 -46 54 0 28 30 30 37 2 3 -11 10
-20 15 -20 6 0 8 7 4 15 -3 8 -1 15 5 15 6 0 8 4 4 9 -12 21 -23 106 -14 117
6 7 1 10 -13 10 -28 -1 -36 24 -9 31 12 3 21 12 21 19 0 17 -37 19 -42 2 -3
-7 -12 -9 -23 -4 -17 6 -16 9 10 27 l30 21 -28 -6 -28 -7 2 66 c2 53 5 66 20
70 11 4 19 15 19 26 0 10 5 19 11 19 6 0 9 -9 6 -19 -3 -11 1 -28 8 -38 7 -10
15 -44 19 -75 4 -32 12 -60 17 -64 6 -3 7 -24 3 -49 -3 -24 -3 -63 1 -86 l7
-43 15 27 c7 15 16 27 18 27 3 0 3 -31 1 -70 -2 -42 0 -70 6 -70 6 0 8 -6 5
-14 -3 -8 6 -24 19 -37 21 -20 27 -21 34 -9 7 12 12 12 22 2 19 -19 38 -14 38
12 0 13 -7 59 -16 102 -15 69 -15 94 -4 198 7 66 23 160 36 209 13 49 24 99
24 113 0 13 5 24 11 24 8 0 8 5 -1 15 -9 11 -10 18 -1 29 6 7 8 21 5 31 -7 18
14 123 27 131 4 2 11 -1 15 -8 11 -18 14 -127 4 -133 -15 -9 -12 -25 5 -25 23
0 75 57 76 83 2 73 27 179 47 199 6 6 12 7 12 2 0 -6 7 -19 15 -30 15 -18 15
-14 13 41 -3 56 -1 60 20 63 12 2 20 7 17 12 -3 4 2 10 10 14 8 3 17 1 20 -4
4 -6 11 -10 17 -10 7 0 6 5 -1 14 -13 16 2 32 19 21 6 -3 10 1 10 10 0 9 5 13
10 10 6 -4 17 -2 23 4 9 7 25 6 52 -3 34 -12 41 -12 51 2 7 9 18 13 28 9 9 -4
14 -3 11 2 -7 13 10 22 28 15 12 -4 13 -12 7 -34 -10 -33 -3 -45 17 -28 10 8
17 8 25 0 8 -8 -4 -26 -45 -66 -53 -53 -57 -77 -6 -38 38 29 59 34 59 14 0
-13 2 -14 9 -4 4 8 11 13 15 13 3 -1 27 -1 54 -1 35 0 43 3 32 10 -11 8 0 10
40 9 30 0 72 2 92 6 21 3 43 3 50 -1 6 -4 34 -8 62 -9 27 -1 52 -7 54 -14 2
-6 8 -8 13 -5 6 3 17 0 25 -7 12 -10 17 -10 27 1 10 10 9 11 -2 5 -10 -5 -12
-4 -7 4 5 8 15 7 37 -6 16 -10 29 -21 29 -25 0 -4 6 -8 13 -8 13 0 53 -68 59
-100 2 -8 6 -17 10 -20 4 -4 9 -23 10 -43 2 -20 7 -37 11 -37 4 0 7 -6 6 -12
-2 -7 3 -33 10 -57 7 -23 10 -45 7 -48 -2 -3 4 -20 14 -39 11 -18 17 -40 15
-47 -3 -7 3 -39 14 -72 11 -32 17 -63 15 -67 -3 -4 0 -8 5 -8 6 0 11 -8 11
-17 0 -10 7 -36 15 -59 9 -28 14 -93 16 -206 1 -92 5 -172 9 -178 10 -17 30
-3 30 21 0 11 7 19 16 19 31 0 48 31 51 93 3 68 9 80 29 53 12 -17 13 -10 8
60 -2 43 -7 91 -9 106 -5 34 10 45 27 18 7 -11 19 -20 27 -20 10 0 7 8 -10 26
l-24 26 52 48 c28 26 86 64 127 84 41 20 78 41 81 47 4 5 17 6 30 3 17 -4 25
-1 29 14 4 13 23 24 52 32 46 13 66 8 46 -12 -17 -17 -15 -28 7 -28 11 0 22
-9 26 -20 5 -16 10 -18 32 -9 14 5 26 8 27 7 7 -18 24 -42 32 -45 5 -1 18 5
29 13 19 15 19 16 1 29 -18 13 -14 41 5 30 5 -4 9 -1 9 4 0 6 -5 11 -11 11 -6
0 -8 9 -4 20 4 14 2 20 -9 20 -8 0 -18 4 -21 10 -4 6 45 8 132 5 166 -5 127 9
-52 20 -66 4 -123 11 -126 16 -3 6 -15 6 -30 1 -53 -19 -84 17 -34 40 14 6 25
19 25 29 0 10 9 20 19 24 11 3 24 12 31 20 10 12 6 13 -23 8 -30 -4 -35 -2
-41 18 -4 13 -10 19 -12 12 -3 -7 0 -22 6 -33 16 -31 2 -39 -20 -12 -12 15
-21 19 -26 11 -3 -6 -2 -14 4 -18 14 -8 27 -61 15 -61 -6 0 -15 11 -21 25 -6
14 -16 25 -22 25 -12 0 -12 0 1 -39 8 -24 8 -35 -1 -46 -15 -18 -30 -10 -30
16 0 10 -4 19 -10 19 -5 0 -10 -7 -10 -15 0 -12 -7 -14 -27 -9 -16 4 -34 12
-41 17 -10 8 -16 7 -24 -6 -5 -10 -14 -15 -19 -12 -5 4 -7 10 -4 15 10 16 -13
20 -25 5 -17 -20 -38 -19 -43 3 -4 16 -5 16 -6 -1 -1 -15 -9 -18 -51 -16 l-50
3 0 72 c0 72 -30 184 -50 184 -4 0 -10 8 -14 18 -8 24 -29 56 -43 65 -7 4 -13
17 -13 27 0 11 -7 20 -15 20 -8 0 -15 5 -15 10 0 19 29 10 49 -16 l21 -27 0
25 c0 32 -18 48 -54 48 -21 0 -27 3 -18 9 11 7 11 11 -2 24 -9 9 -13 23 -9 32
4 11 0 21 -10 27 -30 16 -13 73 18 62 7 -3 16 -1 20 5 3 7 -2 11 -14 11 -25 0
-27 17 -6 41 15 15 14 17 -12 24 -24 6 -25 8 -10 16 27 15 22 47 -8 47 -21 0
-25 -7 -35 -55 -11 -49 -10 -56 7 -68 10 -7 14 -17 10 -22 -5 -4 -13 0 -18 9
-10 17 -89 95 -149 145 -41 34 -162 107 -204 123 -67 25 -284 48 -403 43 -39
-2 -42 0 -48 28 -7 32 15 69 40 69 19 0 26 27 10 40 -8 7 -21 10 -30 7 -28
-11 -25 11 6 42 l31 31 -31 0 c-32 0 -36 -7 -43 -70 -3 -21 -8 -25 -33 -22
l-30 2 25 -19 c23 -18 24 -22 12 -53 -15 -43 -15 -51 1 -41 22 14 38 12 35 -5
-2 -10 -13 -17 -28 -18 -14 0 -31 -3 -38 -8 -8 -5 -12 0 -12 13 0 15 -4 19
-17 14 -17 -7 -16 0 2 52 7 20 7 20 -10 0 -14 -17 -17 -18 -25 -5 -7 10 -9 0
-7 -35 l2 -49 -35 -3 c-19 -2 -76 -23 -128 -48 -51 -25 -98 -45 -103 -45 -5 0
-9 -3 -9 -8 0 -4 -15 -16 -34 -26 -57 -31 -104 -88 -161 -197 -95 -180 -124
-244 -148 -330 -14 -46 -29 -85 -35 -87 -18 -6 -23 16 -10 38 11 18 10 23 -4
31 -22 12 -23 29 -4 29 8 0 18 5 22 12 7 11 5 11 -45 -10 -10 -4 -13 -1 -8 11
3 8 9 31 12 51 6 31 5 34 -13 29 -23 -6 -36 -44 -26 -75 5 -18 3 -20 -20 -14
-19 5 -28 2 -32 -9 -10 -26 -32 -18 -26 10 6 34 -6 65 -18 46 -4 -8 -6 -20 -3
-28 3 -7 1 -13 -5 -13 -17 0 -20 73 -5 107 16 34 11 53 -13 53 -8 0 -14 7 -14
15 0 8 -4 15 -10 15 -5 0 -10 -5 -10 -11 0 -5 -4 -7 -10 -4 -5 3 -10 2 -10 -4
0 -5 5 -13 10 -16 16 -10 12 -23 -11 -30 -30 -10 -22 -50 10 -50 27 0 45 -36
37 -71 -4 -13 -1 -24 5 -26 7 -2 13 -21 14 -41 1 -20 6 -37 11 -37 9 0 10 4
13 35 1 11 9 13 33 8 18 -4 38 -12 45 -19 13 -13 14 -94 1 -94 -4 0 -8 5 -8
10 0 6 -4 10 -10 10 -5 0 -10 -9 -10 -20 0 -11 5 -20 12 -20 8 0 6 -6 -4 -16
-23 -24 -48 -11 -48 25 0 27 -21 61 -38 61 -3 0 -1 -5 6 -12 16 -16 15 -60 0
-77 -11 -11 -10 -14 0 -18 7 -3 19 -11 27 -19 8 -8 16 -10 20 -5 10 17 37 0
32 -20 -3 -11 -1 -19 4 -19 5 0 9 -11 9 -25 0 -16 -6 -25 -16 -25 -9 0 -14 -7
-12 -17 5 -29 33 -21 36 10 2 15 8 27 13 27 6 0 7 -9 4 -21 -4 -13 -1 -27 9
-38 15 -16 15 -19 -3 -35 -18 -17 -20 -17 -29 0 -10 18 -12 6 -14 -68 -1 -16
-6 -28 -14 -28 -10 0 -11 -6 -4 -26 13 -33 13 -32 -7 -37 -13 -4 -12 -5 5 -6
26 -1 40 -27 23 -44 -14 -14 -15 -30 -1 -22 6 4 17 1 25 -5 12 -10 15 -9 15 5
0 34 25 7 28 -31 5 -75 20 -179 28 -198 7 -19 6 -19 -23 2 -19 13 -38 19 -48
16 -15 -6 -13 0 6 34 28 48 17 69 -15 30 -12 -16 -30 -28 -40 -28 -15 0 -17
-5 -12 -26 7 -25 5 -26 -19 -20 -16 4 -24 3 -21 -3 4 -5 2 -12 -4 -16 -19 -12
15 -33 43 -28 25 5 27 3 27 -26 0 -18 5 -41 11 -52 8 -16 7 -26 -6 -45 -13
-20 -14 -29 -5 -39 7 -8 9 -19 5 -26 -5 -8 -1 -9 13 -5 16 5 20 1 24 -24 5
-36 0 -44 -19 -29 -22 19 -16 -19 9 -54 13 -18 23 -36 23 -42 1 -5 6 -9 13 -7
19 3 14 -8 -18 -45 -17 -19 -27 -39 -23 -46 5 -8 8 -8 11 1 2 7 8 12 13 12 13
0 11 -64 -2 -77 -18 -18 10 -27 30 -9 14 13 24 14 45 7 14 -6 26 -17 26 -24 0
-8 7 -27 14 -43 18 -36 7 -137 -17 -161 -15 -15 -18 -15 -35 0 -10 9 -22 17
-27 17 -4 0 -28 16 -51 36 -31 24 -44 43 -44 60 0 33 18 66 32 58 6 -4 9 -1 6
7 -3 8 -17 13 -32 12 -14 -1 -24 2 -21 6 2 5 -21 7 -53 6 -56 -2 -59 -1 -69
26 -14 36 -35 38 -31 3 2 -16 -3 -29 -11 -32 -10 -3 -13 1 -9 16 4 12 -2 26
-13 36 -11 9 -19 23 -19 31 0 21 -18 19 -22 -2 -2 -13 -11 -8 -40 23 -37 38
-48 64 -28 64 6 0 10 5 10 10 0 6 -13 10 -29 10 -25 0 -30 4 -33 28 -2 15 -9
27 -16 27 -13 0 -51 43 -52 58 0 4 9 7 20 7 23 0 24 6 8 43 -7 15 -21 27 -31
27 -11 0 -21 9 -24 19 -5 20 -33 38 -33 21 0 -6 -7 -10 -15 -10 -23 0 -30 65
-11 95 20 30 20 45 1 45 -8 0 -24 9 -35 20 -20 20 -20 20 -20 1 0 -11 5 -32
10 -47 14 -36 2 -45 -19 -15 -9 14 -31 43 -49 64 -17 21 -35 51 -39 65 -3 15
-13 33 -21 41 -8 9 -12 25 -8 42 3 17 1 29 -7 32 -9 3 -9 8 1 20 8 9 10 22 6
29 -5 7 -7 21 -6 31 2 9 -3 17 -11 17 -22 0 -27 -11 -14 -31 10 -16 9 -21 -3
-29 -24 -15 -32 -12 -25 10 4 14 2 20 -6 18 -7 -2 -22 14 -33 34 -19 35 -19
38 -3 56 9 10 17 22 17 25 0 13 -23 7 -42 -10 -17 -15 -23 -10 -20 18 1 4 -8
15 -18 24 -25 22 -25 32 -2 38 11 3 7 5 -10 6 -20 1 -29 8 -37 32 -14 40 -7
51 27 43 25 -5 26 -4 9 9 -10 9 -15 21 -11 31 3 9 1 16 -4 16 -6 0 -12 14 -14
31 l-3 31 -29 -26 c-33 -31 -44 -27 -30 12 7 18 16 26 30 25 18 -1 18 -1 2 11
-10 7 -14 16 -10 20 4 5 -2 6 -13 4 -15 -2 -19 2 -18 19 2 16 -3 21 -17 20
-10 -1 -16 -5 -14 -9 3 -4 -1 -8 -8 -8 -16 0 -22 -46 -8 -55 6 -3 10 -12 10
-18 0 -8 -3 -9 -8 -1 -4 6 -14 13 -23 16 -17 7 -15 53 2 64 5 3 9 14 9 25 0
10 5 19 10 19 6 0 10 8 10 19 0 10 7 32 15 47 8 16 15 39 15 51 0 24 22 43 28
24 3 -9 7 -9 18 0 18 15 18 39 -1 66 -15 22 -15 26 17 101 6 15 10 31 9 35 -2
13 19 47 29 47 6 0 10 -7 10 -15 0 -8 7 -15 15 -15 10 0 15 10 15 34 0 19 4
36 10 38 5 2 12 23 16 47 6 35 4 43 -7 39 -8 -3 -13 -16 -11 -32 3 -31 -13
-34 -29 -5 -9 17 -5 42 17 126 15 58 32 110 38 117 6 6 19 36 30 66 24 73 46
120 56 120 5 0 14 -16 21 -35 10 -26 16 -32 26 -24 8 7 10 17 4 27 -5 8 -6 32
-4 52 5 34 3 37 -18 36 -19 -1 -23 3 -21 22 6 41 -15 22 -28 -25z m1700 -53
c0 -5 -7 -10 -15 -10 -8 0 -15 5 -15 10 0 6 7 10 15 10 8 0 15 -4 15 -10z
m-43 -26 c-9 -9 -28 6 -21 18 4 6 10 6 17 -1 6 -6 8 -13 4 -17z m-1773 -439
c3 -9 0 -15 -9 -15 -8 0 -15 7 -15 15 0 8 4 15 9 15 5 0 11 -7 15 -15z m1926
-205 c0 -5 -5 -10 -11 -10 -5 0 -7 5 -4 10 3 6 8 10 11 10 2 0 4 -4 4 -10z
m-557 -93 c-8 -13 -23 3 -23 26 0 20 0 20 14 2 8 -11 12 -23 9 -28z m-473 -57
c0 -5 -4 -10 -10 -10 -5 0 -10 5 -10 10 0 6 5 10 10 10 6 0 10 -4 10 -10z m92
-135 c4 -27 10 -85 14 -127 7 -82 -2 -100 -26 -50 -11 23 -14 24 -18 8 -2 -10
1 -22 8 -26 7 -4 10 -16 8 -26 -5 -18 -5 -18 -13 1 -5 11 -15 26 -22 33 -13
14 -18 98 -7 126 3 9 12 16 20 16 21 0 17 28 -6 40 -19 10 -27 40 -14 53 4 3
16 5 28 4 17 -2 22 -11 28 -52z m1841 -91 c3 -4 0 -16 -7 -28 -20 -32 -28 -74
-15 -82 8 -4 7 -9 -2 -15 -11 -8 -9 -13 9 -28 12 -11 22 -25 22 -32 0 -14 -69
-89 -82 -89 -15 0 1 133 24 207 21 66 34 84 51 67z m-3009 -30 c4 -15 5 -29 2
-31 -9 -9 -24 7 -28 32 -7 34 18 33 26 -1z m3183 9 c4 -11 -26 -27 -35 -19 -2
3 -2 12 2 21 6 18 27 16 33 -2z m73 -4 c0 -7 9 -9 21 -6 13 3 19 1 16 -6 -2
-7 -15 -12 -28 -12 -13 0 -37 -13 -54 -29 -32 -30 -164 -101 -172 -92 -10 10
7 37 18 30 7 -4 9 0 5 12 -8 27 36 47 70 32 20 -10 29 -8 52 9 15 11 33 32 40
46 13 27 32 36 32 16z m200 3 c0 -15 -47 -35 -61 -26 -10 6 -5 11 16 20 36 16
45 17 45 6z m-3388 -44 c20 -17 31 -65 17 -73 -13 -8 -3 -57 14 -67 8 -4 7
-11 -3 -22 -21 -26 -4 -30 21 -5 l22 22 19 -23 c10 -12 18 -38 18 -57 0 -21 4
-32 11 -28 22 14 115 -123 124 -183 6 -36 4 -41 -9 -36 -21 8 -20 2 4 -26 25
-29 25 -41 0 -85 -16 -28 -17 -35 -5 -35 8 0 21 16 29 35 20 48 51 47 94 -5
17 -21 32 -41 32 -45 0 -6 10 -19 38 -50 6 -7 12 -23 12 -36 0 -18 -2 -19 -15
-9 -12 10 -15 10 -15 -3 0 -14 22 -29 44 -31 23 -2 16 -26 -8 -26 -18 0 -24
-4 -20 -15 5 -11 -1 -15 -19 -15 -14 0 -27 -7 -31 -15 -3 -8 -17 -20 -31 -25
-20 -8 -25 -16 -24 -42 0 -31 1 -32 11 -10 11 21 28 28 41 16 5 -5 -35 -123
-50 -147 -2 -4 -11 -3 -19 4 -11 9 -18 9 -26 1 -9 -9 -6 -12 11 -12 34 0 23
-34 -13 -38 -26 -3 -28 -6 -22 -38 6 -30 4 -34 -13 -34 -13 0 -19 5 -15 14 7
19 -14 30 -31 16 -15 -13 -12 -58 7 -97 21 -43 -17 -66 -56 -34 -10 8 -16 9
-16 3 0 -6 5 -14 10 -17 6 -4 8 -11 4 -16 -3 -6 3 -13 15 -16 26 -7 26 -11 0
-42 -17 -21 -24 -23 -39 -14 -22 15 -30 7 -30 -28 0 -15 -5 -31 -10 -34 -7 -4
-7 -13 0 -26 12 -22 6 -39 -16 -39 -13 0 -19 23 -16 63 1 9 -5 17 -13 17 -8 0
-15 4 -15 9 0 5 -8 7 -19 4 -11 -3 -21 2 -25 12 -4 12 -13 15 -31 11 -16 -4
-25 -2 -25 5 0 7 -11 22 -25 35 -14 13 -25 28 -25 33 0 14 31 2 53 -21 22 -22
33 -23 41 -2 4 11 12 13 28 8 20 -6 21 -5 9 10 -7 9 -20 16 -28 16 -9 0 -13 6
-10 13 3 8 1 20 -4 28 -7 11 -10 10 -15 -7 -4 -16 -11 -20 -25 -17 -27 7 -20
37 9 41 19 3 23 8 18 26 -4 15 1 31 14 46 25 29 25 40 0 33 -22 -6 -23 -3 -14
21 8 21 93 22 160 1 42 -12 50 -12 57 0 4 8 14 12 22 9 23 -9 45 3 38 21 -4
12 -8 13 -13 5 -7 -12 -56 -13 -224 -5 l-88 4 5 -25 c3 -20 1 -24 -14 -19 -11
3 -28 8 -39 11 -11 3 -20 1 -20 -4 0 -5 13 -12 30 -15 25 -6 30 -11 30 -37 0
-32 -9 -37 -28 -18 -10 10 -17 10 -32 0 -12 -7 -21 -8 -25 -2 -3 6 -11 10 -17
10 -6 0 -3 -12 7 -26 9 -14 15 -27 13 -28 -11 -9 -75 -26 -99 -26 -15 0 -31
-5 -34 -10 -9 -14 -35 7 -30 23 2 7 9 45 15 84 l12 73 89 -4 c70 -2 89 0 89
11 0 10 -19 13 -75 13 l-74 0 2 28 c1 15 -2 39 -6 53 -8 31 5 40 100 68 l62
19 29 -30 c20 -19 33 -25 37 -18 4 7 -3 19 -15 27 l-22 16 28 23 c16 13 39 23
51 24 16 0 21 4 17 15 -4 8 -1 15 5 15 6 0 11 -5 11 -10 0 -6 10 -8 24 -4 18
4 28 0 40 -17 8 -13 19 -19 23 -15 5 5 2 11 -4 13 -7 3 -13 16 -13 29 0 21 -5
24 -35 24 -28 0 -35 4 -35 20 0 26 -20 26 -27 -1 -4 -16 -11 -19 -29 -15 -26
7 -34 -11 -9 -20 23 -9 18 -21 -12 -29 -16 -3 -35 -12 -43 -19 -17 -15 -125
-46 -158 -46 -24 0 -24 6 -2 90 5 19 11 44 12 55 4 30 94 72 119 57 15 -10 19
-9 19 3 0 8 4 15 8 15 5 0 17 7 28 15 18 14 18 14 -6 14 -14 0 -34 1 -45 3
-14 2 -19 -2 -17 -13 1 -10 -10 -20 -35 -28 -21 -7 -43 -15 -50 -17 -17 -7
-11 102 10 195 21 90 22 91 58 91 31 0 36 9 17 28 -10 10 -10 15 2 22 13 8 13
10 -2 10 -9 0 -19 -6 -22 -12 -3 -7 -5 16 -3 52 1 36 6 68 12 72 5 4 10 20 11
35 2 48 48 185 63 191 8 3 17 0 19 -6 5 -16 32 -15 34 1 0 6 2 17 3 22 2 6 3
13 4 18 2 11 25 8 43 -5z m1048 -142 c0 -8 -5 -18 -10 -21 -6 -4 -8 -15 -5
-26 4 -10 2 -26 -3 -35 -7 -12 -10 -6 -15 27 -5 41 4 69 24 69 5 0 9 -6 9 -14z
m-1239 -69 c-18 -18 -25 1 -11 30 l14 28 4 -24 c2 -13 -1 -28 -7 -34z m1297
-179 c18 -18 14 -38 -8 -38 -15 0 -20 7 -20 25 0 27 9 32 28 13z m-53 -379
c-4 -6 3 -21 16 -35 18 -19 20 -27 11 -36 -7 -7 -12 -25 -12 -41 0 -17 -4 -26
-10 -22 -6 4 -8 15 -5 26 4 10 2 19 -3 19 -14 0 -21 83 -8 92 15 11 18 10 11
-3z m-511 -19 c-6 -6 -19 -7 -30 -3 -17 6 -17 8 6 13 29 8 38 4 24 -10z m-114
-60 c0 -5 -7 -10 -15 -10 -8 0 -15 5 -15 10 0 6 7 10 15 10 8 0 15 -4 15 -10z
m128 -18 c29 -32 41 -105 15 -95 -7 3 -13 0 -13 -6 0 -18 -29 -12 -42 9 -7 11
-16 20 -20 20 -19 0 -48 37 -48 62 0 38 18 35 28 -4 9 -33 9 -33 17 -8 8 25
24 50 32 50 3 0 17 -13 31 -28z m611 -5 c35 -1 43 -5 48 -25 3 -13 0 -29 -7
-35 -10 -10 -12 -7 -7 10 6 26 -7 40 -19 21 -4 -7 -10 -28 -14 -48 -7 -46 -40
-56 -40 -11 0 16 -5 33 -10 36 -8 5 -7 11 1 21 9 12 9 13 -3 9 -8 -3 -21 1
-28 10 -10 12 -10 18 1 31 12 14 14 14 25 -1 7 -10 28 -17 53 -18z m-725 -57
c14 -33 22 -40 37 -35 16 5 23 -2 38 -36 18 -40 18 -44 3 -55 -13 -10 -15 -17
-6 -31 14 -23 44 -29 44 -9 0 9 3 16 8 16 10 0 42 -38 42 -50 0 -18 22 -22 34
-5 11 16 17 16 77 2 l64 -14 -30 -13 -30 -14 50 -7 c28 -4 63 -8 79 -8 25 -1
27 1 16 15 -11 12 -10 18 3 31 15 16 18 15 42 -7 32 -30 32 -40 0 -40 -23 0
-24 -2 -13 -20 10 -16 10 -24 1 -40 -8 -12 -9 -21 -3 -25 6 -3 10 0 10 8 0 8
6 20 14 26 12 10 25 4 71 -33 30 -25 69 -53 85 -61 16 -8 33 -23 38 -33 9 -16
-12 -391 -23 -420 -3 -8 -13 -11 -22 -8 -10 3 -51 7 -91 8 -40 1 -76 6 -81 12
-5 6 -8 28 -7 49 1 21 -2 41 -6 43 -5 3 -8 14 -8 25 0 12 -4 17 -11 14 -6 -4
-17 1 -24 11 -14 18 -14 18 -15 -4 0 -13 8 -31 17 -40 16 -16 16 -17 0 -20 -9
-2 -17 -10 -17 -17 0 -9 6 -12 15 -9 11 5 15 -2 15 -26 0 -40 -45 -89 -64 -70
-8 9 -5 16 12 27 12 9 22 23 22 32 0 14 -2 14 -10 1 -9 -13 -14 -7 -11 13 0 4
-4 7 -9 7 -6 0 -10 -6 -10 -13 0 -10 -25 -14 -102 -16 -57 -1 -108 -7 -116
-13 -10 -9 -12 -8 -10 3 2 10 -10 13 -59 10 -51 -2 -63 0 -63 13 0 8 10 22 22
30 19 14 19 16 5 22 -9 3 -17 13 -17 21 0 13 9 15 45 10 53 -8 61 8 10 17 -29
6 -35 11 -35 31 0 21 -5 25 -29 25 -16 0 -34 7 -41 15 -20 24 -31 18 -18 -10
6 -14 15 -25 20 -25 4 0 8 -7 8 -15 0 -23 -18 -18 -36 10 -9 14 -22 25 -30 25
-10 0 -12 9 -7 33 6 29 5 31 -11 18 -20 -17 -27 -12 -20 15 6 22 70 62 81 51
3 -4 1 -7 -5 -7 -7 0 -12 -9 -12 -20 0 -20 1 -20 33 -3 24 13 28 18 15 21 -20
4 -24 17 -8 27 17 10 11 36 -12 54 -15 12 -18 20 -10 25 7 4 12 2 12 -3 0 -6
4 -11 9 -11 15 0 24 92 10 101 -11 6 -8 17 10 49 24 43 21 56 -14 62 -17 2
-20 -2 -19 -29 1 -21 -3 -33 -11 -33 -18 0 -38 -27 -30 -40 5 -8 11 -8 19 -1
7 6 16 8 19 4 11 -10 8 -53 -3 -53 -5 0 -10 7 -10 16 0 14 -3 14 -15 4 -8 -7
-15 -19 -15 -26 0 -8 -5 -14 -12 -14 -9 0 -9 -3 -1 -11 6 -6 9 -18 6 -25 -3
-8 0 -21 7 -29 10 -12 8 -18 -6 -32 -12 -13 -19 -14 -22 -5 -2 6 -10 12 -18
12 -12 0 -13 -4 -3 -22 9 -16 9 -23 0 -26 -6 -2 -11 -13 -11 -24 0 -17 -3 -18
-15 -8 -8 7 -22 9 -31 6 -13 -5 -8 -13 24 -39 51 -40 55 -76 14 -116 -15 -16
-26 -33 -24 -40 5 -16 -7 -13 -35 9 -33 25 -47 25 -40 0 6 -25 -9 -36 -28 -20
-12 10 -15 9 -15 -3 0 -21 -14 -24 -74 -16 -28 3 -54 5 -58 2 -16 -9 -7 -21
15 -20 12 0 41 -2 64 -3 34 -3 40 -6 31 -17 -6 -8 -27 -13 -47 -13 -20 0 -50
-2 -67 -6 -22 -4 -34 -1 -44 11 -12 15 -12 19 1 29 9 6 14 16 12 23 -3 7 5 20
16 30 12 9 24 32 27 50 3 18 10 36 15 39 5 3 9 13 9 22 0 33 15 45 38 31 12
-7 25 -9 29 -5 4 5 4 10 -2 13 -5 2 -17 8 -25 13 -13 9 -13 12 1 23 9 7 19 22
23 35 8 26 24 28 52 7 41 -31 47 -8 10 40 l-25 32 27 39 c25 36 72 58 72 34 0
-6 5 -10 10 -10 15 0 12 16 -5 34 -20 19 -19 23 5 29 24 6 28 47 4 47 -9 0
-14 6 -11 13 2 7 17 11 33 9 17 -1 24 1 17 5 -6 5 -14 19 -18 33 -5 20 1 32
30 60 l35 34 0 -33 0 -34 20 26 c11 14 20 32 20 41 0 9 7 16 15 16 23 0 29 27
10 46 -15 15 -17 15 -30 -2 -14 -18 -14 -17 -15 9 0 29 45 127 58 127 5 0 16
-18 26 -40z m-833 -63 c8 -7 18 -22 21 -33 5 -20 1 -22 -43 -23 -26 0 -51 4
-55 10 -8 14 27 40 45 33 11 -4 12 -2 1 11 -10 12 -10 15 1 15 8 0 21 -6 30
-13z m1524 -40 c9 -37 9 -47 0 -47 -27 0 -57 74 -38 94 14 14 26 -1 38 -47z
m-565 22 c0 -24 -23 -21 -28 4 -2 10 3 17 12 17 10 0 16 -9 16 -21z m115 -28
c50 -46 49 -62 -2 -65 -15 -1 -33 -5 -39 -8 -16 -10 -24 1 -24 33 0 15 -6 29
-12 32 -10 3 -10 10 1 31 8 14 18 25 22 24 4 -2 28 -23 54 -47z m498 -11 c-3
-11 -9 -20 -14 -20 -10 0 -12 24 -2 33 13 13 21 7 16 -13z m-1496 -12 c-3 -8
-6 -5 -6 6 -1 11 2 17 5 13 3 -3 4 -12 1 -19z m1283 -88 c0 -5 -5 -10 -11 -10
-5 0 -7 5 -4 10 3 6 8 10 11 10 2 0 4 -4 4 -10z m-1110 -99 c0 -6 -4 -13 -10
-16 -5 -3 -10 1 -10 9 0 9 5 16 10 16 6 0 10 -4 10 -9z m-52 -17 c12 -2 22 -9
22 -15 0 -6 -4 -8 -9 -5 -17 11 -21 -27 -5 -46 20 -21 19 -23 -18 -32 -20 -4
-30 -2 -37 11 -14 25 -25 9 -11 -16 9 -17 8 -22 -4 -27 -8 -3 -12 -12 -10 -19
3 -7 -5 -20 -18 -29 -27 -19 -42 -21 -35 -3 3 7 -3 18 -13 25 -15 9 -17 7 -15
-19 1 -16 5 -32 7 -35 3 -3 -5 -17 -18 -31 -21 -23 -25 -24 -39 -10 -8 9 -15
23 -15 32 0 28 41 179 51 190 19 20 121 37 167 29z m62 -89 c0 -8 -4 -15 -9
-15 -13 0 -22 16 -14 24 11 11 23 6 23 -9z m-40 -34 c0 -11 -6 -21 -12 -24 -7
-2 -10 -8 -6 -12 4 -4 19 0 33 9 26 17 27 17 23 -6 -2 -14 -9 -22 -18 -20 -8
2 -20 -4 -26 -13 -8 -11 -20 -15 -33 -10 -25 8 -27 18 -6 35 8 7 15 20 15 30
0 9 3 20 7 23 12 13 23 7 23 -12z m130 -11 c0 -5 -4 -10 -10 -10 -5 0 -10 5
-10 10 0 6 5 10 10 10 6 0 10 -4 10 -10z m-40 -66 c0 -13 3 -23 8 -23 38 6 42
-13 7 -29 -37 -17 -44 -15 -38 11 5 18 3 20 -8 10 -32 -31 -47 8 -16 40 26 28
47 24 47 -9z m40 21 c10 -12 10 -15 -4 -15 -9 0 -16 7 -16 15 0 8 2 15 4 15 2
0 9 -7 16 -15z m70 0 c13 -16 6 -35 -15 -35 -18 0 -28 17 -21 35 7 19 20 19
36 0z m-287 -39 c3 -8 14 -12 24 -10 10 2 25 0 33 -6 12 -8 13 -12 2 -19 -11
-6 -8 -12 10 -27 14 -11 28 -31 31 -45 5 -18 17 -29 44 -37 20 -6 40 -8 43 -4
3 4 12 8 21 9 20 4 23 -61 3 -78 -11 -9 -14 -8 -14 3 0 24 -72 32 -87 11 -11
-14 -9 -19 8 -31 14 -9 17 -18 11 -24 -11 -11 -3 -49 17 -87 15 -27 0 -27 -24
-1 -10 11 -24 20 -32 20 -8 0 -13 8 -12 18 3 32 -1 42 -17 42 -13 0 -15 7 -9
43 4 23 11 46 15 50 9 10 1 47 -10 47 -4 0 -13 -7 -20 -15 -14 -17 -50 -20
-50 -4 0 5 -4 8 -9 4 -5 -3 -16 3 -23 13 -7 10 -24 22 -38 25 -37 10 -53 23
-45 37 4 6 15 10 25 7 12 -3 20 2 23 14 3 10 17 23 31 29 14 5 26 14 26 20 0
15 17 12 23 -4z m96 -39 c0 -21 -1 -21 -9 -2 -12 28 -12 37 0 30 6 -3 10 -16
9 -28z m201 -12 c0 -5 -5 -3 -10 5 -5 8 -10 20 -10 25 0 6 5 3 10 -5 5 -8 10
-19 10 -25z m-462 6 c3 -8 -1 -12 -9 -9 -7 2 -15 10 -17 17 -3 8 1 12 9 9 7
-2 15 -10 17 -17z m387 -45 c18 -13 18 -14 -3 -25 -18 -10 -22 -9 -22 4 0 8
-9 15 -19 15 -11 0 -23 5 -26 10 -9 15 48 12 70 -4z m55 -16 c0 -11 -7 -20
-15 -20 -17 0 -18 2 -9 24 9 23 24 20 24 -4z m-120 -6 c0 -8 -4 -12 -10 -9 -5
3 -10 10 -10 16 0 5 5 9 10 9 6 0 10 -7 10 -16z m-317 -20 c9 -10 -4 -34 -19
-34 -8 0 -14 6 -14 13 0 22 19 35 33 21z m105 -15 c10 -16 11 -24 3 -32 -14
-14 -57 25 -47 42 11 17 30 13 44 -10z m690 -70 c-11 -25 -54 -53 -67 -44 -4
2 -5 20 -3 39 4 31 8 35 36 38 41 4 48 -3 34 -33z m-710 19 c7 -7 12 -18 12
-25 0 -10 -6 -10 -25 3 -14 9 -25 20 -25 25 0 13 24 11 38 -3z m102 -2 c0 -20
-26 -40 -35 -26 -3 6 -11 8 -16 5 -10 -7 -13 18 -2 28 12 13 53 7 53 -7z m162
-41 c3 -14 1 -25 -3 -25 -5 0 -9 -10 -9 -22 0 -13 -4 -30 -10 -38 -8 -13 -9
-13 -14 0 -2 8 -7 23 -10 33 -3 9 -1 17 5 17 6 0 9 7 5 15 -7 20 3 45 19 45 7
0 15 -11 17 -25z m-217 -26 c11 -34 -26 -52 -44 -22 -7 13 -5 21 7 30 24 17
30 16 37 -8z m695 -6 c-1 -24 -2 -26 -13 -12 -7 9 -18 14 -26 11 -12 -4 -12
-3 0 11 22 25 39 20 39 -10z m-180 2 c0 -8 -4 -15 -10 -15 -5 0 -10 7 -10 15
0 8 5 15 10 15 6 0 10 -7 10 -15z m-620 -14 c0 -20 -13 -41 -21 -35 -15 9 -10
44 6 44 8 0 15 -4 15 -9z m718 -29 c2 -7 -3 -12 -12 -12 -9 0 -16 7 -16 16 0
17 22 14 28 -4z m37 8 c3 -5 -1 -10 -10 -10 -9 0 -13 5 -10 10 3 6 8 10 10 10
2 0 7 -4 10 -10z m-632 -23 c-3 -5 -11 -6 -18 -3 -16 6 -29 -52 -15 -69 8 -9
5 -14 -12 -18 -29 -8 -40 0 -33 24 4 13 2 19 -9 19 -19 0 -21 23 -3 38 22 18
101 26 90 9z m61 -3 c7 -18 0 -34 -15 -34 -5 0 -9 11 -9 25 0 28 15 34 24 9z
m1114 -29 c3 -28 2 -29 -14 -13 -12 12 -23 14 -40 7 -30 -11 -31 -3 -1 22 30
26 51 20 55 -16z m163 21 c-7 -8 -9 -25 -5 -40 6 -24 3 -26 -23 -26 -16 0 -38
6 -48 14 -18 13 -18 15 -2 40 14 20 26 26 53 26 30 0 34 -2 25 -14z m-1461
-36 c5 -3 -2 -10 -16 -17 -22 -10 -24 -9 -24 17 0 31 23 47 29 21 2 -9 7 -18
11 -21z m246 -35 c-7 -15 -15 -20 -20 -14 -15 14 -46 11 -46 -6 0 -9 12 -18
30 -21 31 -7 34 -12 24 -38 -8 -20 -38 -21 -67 -1 -28 18 -37 85 -12 85 8 0
15 5 15 10 0 6 9 10 19 10 23 0 40 22 23 28 -7 2 -12 9 -12 15 0 6 13 -2 29
-17 25 -24 27 -30 17 -51z m207 69 c15 -3 27 -12 27 -21 0 -9 6 -13 15 -9 9 3
21 -4 31 -19 9 -14 22 -25 28 -24 47 6 64 -21 25 -41 -17 -10 -24 -7 -45 16
-24 25 -27 26 -42 10 -16 -16 -16 -18 5 -36 19 -15 22 -25 18 -64 -4 -35 -1
-46 9 -46 21 0 27 -27 8 -35 -15 -6 -51 28 -52 48 0 5 -7 16 -16 24 -9 10 -14
26 -11 41 3 16 -2 33 -14 45 l-19 21 0 -24 c0 -22 -3 -21 -46 20 -54 53 -71
80 -55 89 14 9 100 12 134 5z m145 -17 c12 -13 19 -27 15 -30 -10 -11 -43 -8
-43 3 0 6 -9 10 -20 10 -13 0 -20 7 -20 20 0 28 41 26 68 -3z m-476 -29 c-15
-15 -26 -4 -18 18 5 13 9 15 18 6 9 -9 9 -15 0 -24z m202 -14 c8 -22 -1 -34
-26 -34 -14 0 -18 5 -14 16 3 9 6 20 6 25 0 15 27 10 34 -7z m-394 -4 c0 -5
-4 -10 -10 -10 -5 0 -10 5 -10 10 0 6 5 10 10 10 6 0 10 -4 10 -10z m1450 -9
c12 -24 13 -31 1 -31 -15 0 -42 31 -36 41 10 15 24 10 35 -10z m-1430 -20 c0
-6 -4 -13 -10 -16 -5 -3 -10 1 -10 9 0 9 5 16 10 16 6 0 10 -4 10 -9z m1505
-1 c3 -5 -1 -10 -9 -10 -9 0 -16 5 -16 10 0 6 4 10 9 10 6 0 13 -4 16 -10z
m-1355 -10 c0 -5 16 -25 36 -44 32 -31 34 -36 19 -42 -13 -5 -24 1 -37 19 -11
15 -26 27 -33 27 -13 0 -27 35 -17 44 9 10 32 7 32 -4z m-110 -4 c0 -3 -4 -8
-10 -11 -5 -3 -10 -1 -10 4 0 6 5 11 10 11 6 0 10 -2 10 -4z m395 -28 c27 -24
35 -39 35 -65 0 -22 -5 -33 -14 -33 -20 0 -31 19 -18 32 8 8 8 17 1 30 -12 22
-29 24 -29 3 0 -8 -7 -15 -15 -15 -9 0 -12 -6 -8 -16 4 -12 0 -15 -18 -12 -18
2 -23 9 -22 26 2 12 -2 22 -7 22 -29 0 13 58 43 59 10 1 33 -13 52 -31z m145
22 c0 -5 -4 -10 -9 -10 -6 0 -13 5 -16 10 -3 6 1 10 9 10 9 0 16 -4 16 -10z
m-528 -65 c4 -20 3 -23 -8 -14 -15 12 -20 54 -5 45 5 -3 11 -17 13 -31z m78
-5 c0 -5 -7 -10 -16 -10 -8 0 -12 5 -9 10 3 6 10 10 16 10 5 0 9 -4 9 -10z
m699 -4 c9 -10 8 -16 -4 -26 -19 -16 -41 1 -32 24 8 20 21 20 36 2z m-581 -23
c-3 -19 -48 -32 -48 -14 0 10 28 30 43 31 5 0 7 -8 5 -17z m-78 -23 c-6 -11
-15 -20 -20 -20 -13 0 -12 8 3 25 18 21 29 18 17 -5z m183 -8 c17 -15 17 -16
-5 -25 -16 -6 -26 -4 -35 8 -6 10 -16 14 -22 10 -12 -7 -15 17 -4 28 9 10 44
-2 66 -21z m152 18 c3 -5 1 -10 -4 -10 -6 0 -11 5 -11 10 0 6 2 10 4 10 3 0 8
-4 11 -10z m-45 -30 c0 -5 -4 -10 -9 -10 -6 0 -13 5 -16 10 -3 6 1 10 9 10 9
0 16 -4 16 -10z m-425 -28 c-8 -2 -15 -8 -15 -13 0 -5 -4 -9 -10 -9 -11 0 -14
33 -4 43 3 3 15 0 25 -6 16 -10 17 -13 4 -15z m58 -25 c-3 -5 -10 -4 -15 1 -6
6 -7 16 -3 22 6 9 9 9 16 -1 4 -7 5 -17 2 -22z m79 -10 c-9 -20 -22 -33 -27
-29 -13 9 -16 64 -4 56 5 -3 17 -1 26 5 25 13 25 9 5 -32z m254 21 c-9 -5 -16
-17 -16 -26 0 -15 -2 -15 -10 -2 -19 29 -12 48 16 42 22 -4 24 -6 10 -14z
m104 6 c0 -8 -4 -12 -10 -9 -5 3 -10 10 -10 16 0 5 5 9 10 9 6 0 10 -7 10 -16z
m160 -17 c0 -5 -4 -5 -10 -2 -5 3 -10 14 -10 23 0 15 2 15 10 2 5 -8 10 -19
10 -23z m-346 6 c34 -17 49 -43 24 -43 -15 0 -78 42 -78 53 0 11 16 8 54 -10z
m240 -3 c16 -6 27 -6 31 0 10 15 25 12 25 -6 0 -8 -4 -13 -9 -10 -4 3 -16 -1
-26 -8 -15 -11 -21 -11 -37 3 -17 14 -24 31 -14 31 3 0 16 -4 30 -10z m-101
-14 c9 -7 17 -16 17 -18 0 -3 -8 -5 -17 -4 -14 1 -18 -7 -18 -29 0 -16 -4 -30
-10 -30 -5 0 -10 8 -9 18 0 9 -3 17 -8 17 -4 0 -7 11 -6 24 1 14 6 22 10 20 4
-3 8 0 8 5 0 14 11 13 33 -3z m-215 -21 c0 -28 -13 -33 -22 -9 -9 24 -7 34 8
34 8 0 14 -10 14 -25z m232 -35 c0 -11 -4 -20 -10 -20 -5 0 -10 9 -10 20 0 11
5 20 10 20 6 0 10 -9 10 -20z m-310 0 c0 -5 -7 -10 -15 -10 -8 0 -15 5 -15 10
0 6 7 10 15 10 8 0 15 -4 15 -10z m350 0 c0 -5 -2 -10 -4 -10 -3 0 -8 5 -11
10 -3 6 -1 10 4 10 6 0 11 -4 11 -10z m30 0 c0 -5 -4 -10 -10 -10 -5 0 -10 5
-10 10 0 6 5 10 10 10 6 0 10 -4 10 -10z m-333 -15 c7 -20 -2 -29 -21 -22 -9
4 -13 13 -10 22 8 19 23 19 31 0z m130 9 c-3 -3 -12 -4 -19 -1 -8 3 -5 6 6 6
11 1 17 -2 13 -5z m-261 -28 c8 -8 14 -22 14 -31 0 -9 5 -13 10 -10 6 3 10 17
10 31 0 13 5 24 11 24 7 0 9 -9 5 -22 -3 -13 -6 -34 -6 -47 0 -20 -3 -22 -12
-13 -21 21 -29 13 -22 -24 5 -28 2 -39 -14 -55 -12 -10 -23 -15 -26 -11 -8 13
-10 148 -2 161 9 14 14 14 32 -3z m274 -6 c0 -5 -4 -10 -10 -10 -5 0 -10 5
-10 10 0 6 5 10 10 10 6 0 10 -4 10 -10z m160 3 c0 -10 -32 -43 -42 -43 -8 0
-11 33 -3 41 7 7 45 8 45 2z m-320 -28 c10 -12 9 -22 -5 -51 -16 -34 -34 -41
-43 -16 -2 7 6 16 19 20 15 6 18 11 11 16 -14 8 -16 46 -3 46 5 0 14 -7 21
-15z m72 -12 c15 -15 28 -37 28 -49 0 -13 5 -26 11 -29 6 -5 2 -13 -11 -22
-16 -12 -27 -13 -44 -5 -19 9 -23 18 -24 71 -1 34 1 61 5 61 4 0 20 -12 35
-27z m133 7 c3 -5 -1 -10 -9 -10 -9 0 -16 5 -16 10 0 6 4 10 9 10 6 0 13 -4
16 -10z m-67 -24 c3 -12 -1 -17 -10 -14 -7 3 -15 13 -16 22 -3 12 1 17 10 14
7 -3 15 -13 16 -22z m102 -1 c0 -8 -7 -15 -15 -15 -16 0 -20 12 -8 23 11 12
23 8 23 -8z m-58 -10 c0 -5 -5 -11 -11 -13 -6 -2 -11 4 -11 13 0 9 5 15 11 13
6 -2 11 -8 11 -13z m286 -7 c-6 -18 -28 -21 -28 -4 0 9 7 16 16 16 9 0 14 -5
12 -12z m-158 -33 c0 -8 -7 -15 -15 -15 -16 0 -20 12 -8 23 11 12 23 8 23 -8z
m-65 -35 c-3 -5 -10 -10 -16 -10 -5 0 -9 5 -9 10 0 6 7 10 16 10 8 0 12 -4 9
-10z m-241 -15 c3 -9 0 -15 -9 -15 -8 0 -15 7 -15 15 0 8 4 15 9 15 5 0 11 -7
15 -15z m161 -1 c29 -19 34 -47 8 -42 -10 2 -17 11 -17 21 1 9 -4 17 -12 17
-8 0 -14 5 -14 10 0 14 7 13 35 -6z m325 -4 c0 -5 -2 -10 -4 -10 -3 0 -8 5
-11 10 -3 6 -1 10 4 10 6 0 11 -4 11 -10z m-430 -14 c0 -3 -4 -8 -10 -11 -5
-3 -10 -1 -10 4 0 6 5 11 10 11 6 0 10 -2 10 -4z m412 -48 c-9 -9 -12 -9 -12
4 0 9 -7 19 -16 22 -8 3 -12 11 -8 17 4 7 13 4 27 -10 17 -16 19 -23 9 -33z
m-445 0 c2 6 12 12 22 12 9 0 22 5 29 12 19 19 50 -15 32 -36 -10 -13 -10 -19
0 -31 7 -8 9 -15 4 -15 -5 0 -19 -3 -31 -6 -18 -5 -23 -2 -23 12 -1 18 -1 18
-14 1 -9 -12 -16 -14 -21 -8 -11 18 -28 12 -20 -6 23 -58 7 -138 -24 -119 -8
6 -9 12 -2 20 6 7 8 16 4 19 -3 4 -1 13 6 20 9 11 8 17 -2 26 -8 6 -17 8 -20
5 -3 -4 -13 1 -22 10 -9 8 -22 19 -30 23 -17 10 -9 56 9 50 6 -3 10 -10 9 -16
-2 -6 2 -11 7 -11 6 0 10 10 10 21 0 12 8 28 18 35 14 11 20 10 35 -9 13 -15
20 -18 24 -9z m-187 12 c0 -5 -2 -10 -4 -10 -3 0 -8 5 -11 10 -3 6 -1 10 4 10
6 0 11 -4 11 -10z m320 -40 c0 -11 -4 -20 -10 -20 -5 0 -10 2 -10 4 0 2 -3 11
-6 20 -4 11 -1 16 10 16 9 0 16 -8 16 -20z m230 -38 c0 -4 17 -6 38 -4 l37 3
-30 -19 c-16 -10 -32 -16 -35 -12 -3 3 -13 9 -22 13 -22 8 -24 27 -3 27 8 0
15 -4 15 -8z m-207 -24 c4 -12 4 -24 1 -27 -6 -7 -24 20 -24 37 0 21 17 13 23
-10z m-298 -32 c4 -19 5 -42 2 -53 -3 -15 -6 -13 -15 10 -14 34 -16 77 -2 77
5 0 12 -15 15 -34z m64 3 c16 -36 10 -45 -18 -29 -20 10 -28 40 -14 53 12 12
18 8 32 -24z m239 -53 c54 -87 61 -106 38 -106 -8 0 -13 -8 -12 -17 1 -13 -5
-17 -21 -15 -19 3 -23 -1 -20 -20 1 -17 -4 -24 -20 -26 -17 -3 -23 2 -23 16 0
11 -7 22 -15 26 -8 3 -12 12 -9 20 3 8 -2 17 -13 20 -22 7 41 -1 81 -10 19 -5
27 -3 23 3 -4 6 -22 14 -42 17 -19 4 -38 13 -42 20 -5 8 -16 15 -26 17 -15 4
-14 7 8 33 27 31 30 43 15 66 -8 14 4 40 19 40 3 0 30 -38 59 -84z m-333 -6
c15 -30 13 -50 -6 -50 -5 0 -9 7 -9 16 0 11 -6 14 -20 9 -22 -7 -26 6 -10 36
15 27 27 24 45 -11z m218 24 c9 -9 -4 -35 -14 -28 -5 3 -9 12 -9 20 0 14 12
19 23 8z m-153 -48 c0 -19 -4 -38 -10 -41 -6 -4 -10 10 -10 34 0 23 5 41 10
41 6 0 10 -15 10 -34z m84 -31 c-5 -18 -2 -25 9 -25 10 0 13 -7 10 -19 -6 -22
16 -39 27 -21 10 17 34 -4 42 -37 7 -25 -3 -29 -33 -13 -13 7 -19 7 -19 0 0
-5 -8 -10 -17 -10 -13 0 -14 3 -5 12 14 14 -2 38 -26 38 -9 0 -26 10 -39 22
l-23 22 27 28 c34 36 56 37 47 3z m46 5 c0 -5 -4 -10 -9 -10 -6 0 -13 5 -16
10 -3 6 1 10 9 10 9 0 16 -4 16 -10z m-134 -77 c-7 -7 -26 7 -26 19 0 6 6 6
15 -2 9 -7 13 -15 11 -17z m399 17 c3 -5 1 -10 -4 -10 -6 0 -11 5 -11 10 0 6
2 10 4 10 3 0 8 -4 11 -10z m-171 -111 c-8 -13 -24 -1 -24 18 0 13 3 13 15 3
8 -7 12 -16 9 -21z m56 5 c0 -8 -4 -14 -9 -14 -11 0 -22 26 -14 34 9 9 23 -3
23 -20z m-72 -567 c-1 -13 5 -32 15 -41 20 -21 22 -46 4 -46 -25 0 -49 84 -30
103 11 12 15 8 11 -16z"/>
<path d="M454 3825 c-16 -12 -16 -14 -3 -15 9 0 22 7 29 15 16 19 0 19 -26 0z"/>
<path d="M555 3700 c3 -5 11 -10 16 -10 6 0 7 5 4 10 -3 6 -11 10 -16 10 -6 0
-7 -4 -4 -10z"/>
<path d="M620 3620 c0 -5 5 -10 11 -10 5 0 7 5 4 10 -3 6 -8 10 -11 10 -2 0
-4 -4 -4 -10z"/>
<path d="M375 3532 c6 -6 39 -13 75 -16 36 -4 90 -10 120 -15 30 -5 59 -7 63
-4 5 3 24 5 44 5 69 0 16 16 -72 22 -49 3 -124 8 -165 12 -52 5 -72 3 -65 -4z"/>
<path d="M290 3440 c0 -5 5 -10 10 -10 6 0 10 5 10 10 0 6 -4 10 -10 10 -5 0
-10 -4 -10 -10z"/>
<path d="M680 3380 c0 -13 30 -13 50 0 11 7 7 10 -17 10 -18 0 -33 -4 -33 -10z"/>
<path d="M781 3318 c-1 -21 4 -38 9 -38 11 0 11 14 0 50 -7 22 -8 21 -9 -12z"/>
<path d="M556 3148 c9 -30 10 -32 30 -24 15 6 15 8 -1 26 -24 27 -38 25 -29
-2z"/>
<path d="M826 3123 c6 -44 6 -46 -15 -40 -11 3 -21 1 -21 -4 0 -13 32 -10 52
4 22 17 25 37 10 65 -21 38 -34 26 -26 -25z"/>
<path d="M951 2914 c0 -11 3 -14 6 -6 3 7 2 16 -1 19 -3 4 -6 -2 -5 -13z"/>
<path d="M915 2810 c-15 -6 -8 -9 28 -9 30 -1 46 3 42 9 -7 12 -42 12 -70 0z"/>
<path d="M1059 2795 c-1 -3 -2 -8 -3 -12 -1 -5 -5 -14 -9 -20 -6 -9 -2 -13 12
-13 12 0 21 -6 21 -13 0 -8 7 -28 16 -46 8 -17 14 -37 11 -44 -2 -6 -11 3 -21
21 -9 18 -22 30 -28 26 -7 -4 -5 -10 6 -16 20 -11 12 -30 -9 -21 -8 3 -15 2
-15 -2 0 -11 49 -55 62 -55 5 0 7 -7 4 -15 -18 -44 -17 -49 4 -26 18 21 23 22
31 10 5 -7 9 -19 9 -25 0 -6 7 -17 15 -24 20 -17 19 -7 -4 38 -11 21 -30 73
-42 116 -12 43 -28 80 -35 83 -6 2 -10 13 -7 24 3 10 0 19 -6 19 -6 0 -12 -2
-12 -5z"/>
<path d="M885 2780 c3 -5 8 -10 11 -10 2 0 4 5 4 10 0 6 -5 10 -11 10 -5 0 -7
-4 -4 -10z"/>
<path d="M1158 2743 c6 -2 18 -2 25 0 6 3 1 5 -13 5 -14 0 -19 -2 -12 -5z"/>
<path d="M1205 2710 c-3 -5 -1 -10 4 -10 6 0 11 5 11 10 0 6 -2 10 -4 10 -3 0
-8 -4 -11 -10z"/>
<path d="M1273 2693 c-15 -5 -17 -23 -4 -23 5 0 11 7 15 15 3 8 4 15 3 14 -1
0 -8 -3 -14 -6z"/>
<path d="M942 2636 c1 -10 8 -17 13 -17 15 1 12 24 -3 29 -9 3 -13 -2 -10 -12z"/>
<path d="M770 2570 c0 -5 5 -10 11 -10 5 0 7 5 4 10 -3 6 -8 10 -11 10 -2 0
-4 -4 -4 -10z"/>
<path d="M1195 2548 c5 -26 3 -38 -8 -44 -19 -12 -29 -68 -14 -83 8 -8 4 -11
-17 -11 -15 0 -25 -4 -21 -10 3 -5 14 -10 24 -10 29 0 71 -39 71 -66 0 -13 -5
-23 -12 -21 -8 1 -13 -16 -16 -50 -3 -53 -3 -53 25 -50 65 8 82 34 49 76 -5 7
-19 36 -31 65 -12 29 -26 51 -35 51 -17 0 -17 5 -5 53 5 22 13 32 26 32 21 0
26 16 7 24 -9 3 -8 9 6 20 16 13 17 17 3 30 -8 8 -17 12 -21 9 -3 -3 -13 0
-22 7 -14 12 -15 10 -9 -22z m65 -283 c0 -8 -2 -15 -4 -15 -2 0 -6 7 -10 15
-3 8 -1 15 4 15 6 0 10 -7 10 -15z"/>
<path d="M955 2409 c0 -60 2 -69 18 -69 11 0 18 -7 16 -17 -3 -36 1 -45 17
-39 9 4 22 2 29 -4 9 -8 15 -8 20 0 3 5 -1 10 -10 10 -9 0 -13 5 -10 10 17 28
83 -14 71 -46 -7 -18 -8 -18 -20 -2 -7 10 -16 15 -19 11 -12 -11 -8 -23 8 -23
9 0 15 -9 15 -21 0 -21 0 -21 19 2 16 20 21 21 35 10 9 -8 14 -21 11 -30 -3
-12 1 -17 15 -17 15 0 19 5 14 21 -4 11 -11 26 -16 32 -6 7 -7 20 -4 29 5 12
2 15 -10 10 -13 -5 -15 0 -9 34 7 38 6 40 -20 40 -23 0 -26 4 -22 21 4 15 2
19 -9 15 -18 -7 -74 25 -74 42 0 7 7 15 15 18 8 4 15 10 15 14 0 5 -12 2 -27
-6 -36 -18 -53 -18 -53 0 0 8 -3 17 -7 19 -5 3 -8 -26 -8 -64z m35 -9 c0 -5
-2 -10 -4 -10 -3 0 -8 5 -11 10 -3 6 -1 10 4 10 6 0 11 -4 11 -10z m87 -66
c-12 -13 -37 6 -37 28 l0 22 22 -21 c12 -13 19 -25 15 -29z m-57 -28 c0 -3 -4
-8 -10 -11 -5 -3 -10 -1 -10 4 0 6 5 11 10 11 6 0 10 -2 10 -4z"/>
<path d="M640 2391 c0 -5 5 -13 10 -16 6 -3 10 -2 10 4 0 5 -4 13 -10 16 -5 3
-10 2 -10 -4z"/>
<path d="M766 2275 c-3 -8 -1 -15 4 -15 6 0 10 7 10 15 0 8 -2 15 -4 15 -2 0
-6 -7 -10 -15z"/>
<path d="M530 2256 c0 -2 7 -6 15 -10 8 -3 15 -1 15 4 0 6 -7 10 -15 10 -8 0
-15 -2 -15 -4z"/>
<path d="M538 2203 c6 -2 18 -2 25 0 6 3 1 5 -13 5 -14 0 -19 -2 -12 -5z"/>
<path d="M535 2060 c3 -5 8 -10 11 -10 2 0 4 5 4 10 0 6 -5 10 -11 10 -5 0 -7
-4 -4 -10z"/>
<path d="M560 2015 c0 -14 5 -25 10 -25 6 0 10 2 10 4 0 2 3 11 6 19 3 8 -2
17 -10 20 -12 5 -16 0 -16 -18z"/>
<path d="M410 1940 c0 -5 7 -7 15 -4 8 4 15 8 15 10 0 2 -7 4 -15 4 -8 0 -15
-4 -15 -10z"/>
<path d="M65 4946 c39 -7 81 -10 95 -6 18 5 5 8 -45 13 -105 10 -129 7 -50 -7z"/>
<path d="M203 4933 c9 -2 25 -2 35 0 9 3 1 5 -18 5 -19 0 -27 -2 -17 -5z"/>
<path d="M370 4920 c14 -4 52 -8 85 -8 l60 1 -45 8 c-25 4 -63 7 -85 7 -34 0
-36 -1 -15 -8z"/>
<path d="M2195 4910 c3 -5 11 -10 16 -10 6 0 7 5 4 10 -3 6 -11 10 -16 10 -6
0 -7 -4 -4 -10z"/>
<path d="M1277 4903 c-12 -11 -8 -51 5 -55 10 -4 10 -10 0 -32 -8 -18 -18 -26
-27 -22 -20 7 -15 -33 8 -58 9 -11 17 -32 17 -48 0 -18 5 -28 15 -28 8 0 15 5
15 12 0 8 3 9 10 2 15 -15 1 -94 -16 -94 -17 0 -17 -5 -2 -30 11 -16 9 -22 -7
-34 -19 -15 -19 -15 8 -16 15 0 27 -4 27 -10 0 -5 -7 -10 -15 -10 -16 0 -20
-16 -6 -24 10 -6 71 46 71 61 0 6 -9 13 -20 16 -14 3 -20 0 -20 -11 0 -8 -3
-13 -6 -10 -8 8 17 88 26 83 4 -3 10 11 12 30 2 19 2 32 -1 30 -2 -3 -13 2
-23 12 -24 21 -23 58 2 81 20 19 19 52 -2 52 -5 0 -6 5 -3 10 9 14 -8 13 -23
-2 -9 -9 -12 -9 -12 3 0 8 6 21 13 28 10 10 8 14 -6 22 -9 6 -15 14 -12 18 6
11 -20 33 -28 24z m34 -184 c-8 -21 -10 -22 -16 -6 -10 23 2 54 16 40 6 -6 6
-18 0 -34z"/>
<path d="M710 4891 c8 -6 35 -11 60 -11 74 0 433 -31 463 -40 15 -5 27 -4 27
1 0 12 -27 17 -185 29 -77 6 -151 13 -165 15 -98 11 -213 15 -200 6z"/>
<path d="M560 4835 c-10 -12 -9 -16 3 -21 21 -8 37 3 30 21 -7 19 -17 19 -33
0z"/>
<path d="M1381 4836 c10 -10 120 -16 114 -6 -3 5 -31 10 -62 10 -31 0 -54 -2
-52 -4z"/>
<path d="M1521 4826 c10 -9 79 -14 79 -5 0 5 -19 9 -42 9 -23 0 -39 -2 -37 -4z"/>
<path d="M1660 4810 c70 -11 188 -15 197 -7 3 4 -9 7 -29 7 -19 0 -77 2 -129
5 -79 3 -85 3 -39 -5z"/>
<path d="M1883 4793 c9 -2 25 -2 35 0 9 3 1 5 -18 5 -19 0 -27 -2 -17 -5z"/>
<path d="M1350 4705 c0 -22 22 -40 34 -28 13 14 5 41 -14 46 -16 4 -20 0 -20
-18z"/>
<path d="M3123 4693 c9 -2 23 -2 30 0 6 3 -1 5 -18 5 -16 0 -22 -2 -12 -5z"/>
<path d="M3338 4673 c7 -3 16 -2 19 1 4 3 -2 6 -13 5 -11 0 -14 -3 -6 -6z"/>
<path d="M3378 4673 c7 -3 16 -2 19 1 4 3 -2 6 -13 5 -11 0 -14 -3 -6 -6z"/>
<path d="M3425 4672 c11 -12 111 -19 121 -9 4 4 -13 7 -37 7 -24 0 -55 3 -69
6 -17 5 -22 4 -15 -4z"/>
<path d="M1395 4650 c-3 -5 1 -10 9 -10 9 0 16 5 16 10 0 6 -4 10 -9 10 -6 0
-13 -4 -16 -10z"/>
<path d="M3660 4649 c0 -5 28 -9 62 -9 34 0 59 2 57 4 -9 9 -119 14 -119 5z"/>
<path d="M3798 4643 c7 -3 16 -2 19 1 4 3 -2 6 -13 5 -11 0 -14 -3 -6 -6z"/>
<path d="M3905 4630 c11 -5 36 -8 55 -8 32 0 33 1 10 8 -14 4 -38 8 -55 8 -25
1 -27 -1 -10 -8z"/>
<path d="M4015 4621 c11 -5 52 -10 90 -10 95 -2 117 -8 105 -31 -7 -13 -4 -22
10 -35 11 -10 20 -25 20 -34 0 -12 -3 -12 -12 -3 -21 21 -40 15 -32 -10 4 -13
12 -26 18 -30 8 -5 7 -11 -2 -20 -16 -16 -15 -28 3 -28 18 0 20 -16 4 -26 -8
-5 -6 -10 5 -16 14 -8 15 -13 5 -24 -6 -8 -18 -14 -26 -14 -12 0 -13 -3 -4
-14 10 -11 9 -24 0 -58 -7 -24 -16 -47 -21 -52 -13 -16 -10 -24 12 -31 55 -18
-15 -75 -139 -114 -60 -19 -62 -19 -72 0 -14 28 -32 24 -25 -6 5 -20 1 -27
-24 -40 -43 -22 -37 -38 8 -19 20 9 68 27 106 41 l68 25 30 -29 c24 -22 28
-24 22 -8 -4 11 -12 26 -17 33 -5 7 -8 14 -6 16 28 25 215 90 236 82 7 -3 13
1 13 8 0 8 11 17 24 20 13 3 26 15 29 26 3 11 13 20 22 20 13 0 15 -3 7 -12
-8 -10 -1 -13 29 -13 25 0 39 5 39 13 0 14 -15 22 -56 27 -29 3 -31 6 -19 38
4 10 3 17 -4 17 -18 0 -12 28 11 50 l22 20 -21 0 c-12 0 -24 6 -26 13 -4 9 -8
8 -16 -3 -15 -21 -14 -107 2 -113 7 -2 8 -8 3 -13 -5 -5 -11 -4 -13 4 -5 14
-33 16 -33 2 0 -5 5 -10 10 -10 16 0 12 -47 -5 -54 -11 -4 -15 1 -15 19 0 16
-6 25 -15 25 -18 0 -18 -5 -5 -31 9 -15 7 -20 -7 -25 -10 -3 -31 -12 -48 -19
-48 -23 -70 -23 -73 0 -1 11 2 27 8 35 8 13 11 12 23 -4 14 -19 15 -19 26 2 8
14 8 22 1 22 -17 0 -11 29 9 49 20 20 20 20 -2 23 -19 3 -22 9 -22 51 1 26 -3
47 -7 47 -4 0 -8 7 -8 15 0 17 29 34 48 28 6 -3 12 0 12 6 0 6 -6 11 -13 11
-24 0 -44 37 -44 79 0 33 3 41 18 41 14 0 19 -9 21 -40 2 -22 7 -41 13 -43 6
-1 9 14 7 35 -4 47 21 63 84 53 26 -4 44 -2 44 3 0 6 -44 13 -97 17 -54 3
-118 8 -143 10 -124 12 -214 14 -195 6z m223 -379 c3 -9 -2 -13 -14 -10 -9 1
-19 9 -22 16 -3 9 2 13 14 10 9 -1 19 -9 22 -16z"/>
<path d="M4493 4584 c11 -11 57 -13 63 -3 3 5 -12 9 -32 9 -21 0 -34 -3 -31
-6z"/>
<path d="M4570 4581 c0 -8 64 -14 303 -27 97 -6 117 -9 118 -23 7 -87 5 -98
-16 -81 -9 7 -16 6 -26 -6 -11 -13 -10 -17 4 -25 9 -6 17 -18 17 -27 0 -9 9
-23 19 -29 16 -10 22 -9 32 3 16 19 18 66 4 76 -6 5 -6 11 1 18 9 9 14 3 22
-19 6 -17 16 -31 21 -31 14 0 14 33 1 46 -6 6 -6 22 0 43 11 39 6 51 -21 51
-11 0 -19 -7 -19 -17 0 -16 -3 -15 -18 4 -15 19 -32 22 -192 33 -96 6 -192 13
-212 15 -21 2 -38 0 -38 -4z"/>
<path d="M667 4543 c-7 -11 10 -40 18 -31 4 4 3 14 -3 24 -5 9 -12 12 -15 7z"/>
<path d="M5080 4490 c0 -5 7 -10 16 -10 8 0 12 5 9 10 -3 6 -10 10 -16 10 -5
0 -9 -4 -9 -10z"/>
<path d="M3979 4466 c-11 -8 -15 -21 -11 -44 5 -38 19 -49 38 -31 11 12 11 20
1 50 -11 31 -15 35 -28 25z"/>
<path d="M4436 4438 c3 -13 8 -25 10 -27 6 -6 54 29 54 39 0 15 -11 12 -32 -7
-17 -15 -18 -15 -18 0 0 10 -5 17 -11 17 -6 0 -8 -9 -3 -22z"/>
<path d="M4375 4420 c28 -12 37 -12 30 0 -3 6 -16 10 -28 9 -21 0 -21 -1 -2
-9z"/>
<path d="M4910 4376 c0 -8 -7 -16 -15 -20 -8 -3 -15 -1 -15 4 0 6 -4 10 -10
10 -5 0 -10 -9 -10 -20 0 -17 -4 -19 -27 -14 -23 5 -26 4 -15 -7 17 -18 15
-39 -3 -39 -8 0 -15 -5 -15 -11 0 -6 6 -9 13 -6 6 2 21 -3 31 -12 11 -9 16
-11 13 -4 -4 7 5 17 23 25 16 7 30 20 31 28 0 10 2 11 6 3 7 -18 30 -16 37 2
3 9 0 15 -9 15 -17 0 -20 16 -5 25 8 5 7 11 -1 21 -15 18 -29 18 -29 0z"/>
<path d="M3984 4339 c-3 -6 -15 -8 -26 -6 -17 5 -19 2 -14 -19 4 -14 2 -24 -4
-24 -6 0 -4 -13 6 -31 15 -31 15 -32 -10 -54 -14 -12 -26 -27 -26 -34 0 -6 9
-2 20 9 31 31 40 24 40 -32 0 -53 0 -53 15 -25 9 17 12 40 8 59 -5 25 -1 34
18 49 l24 19 -23 6 c-24 7 -26 27 -7 77 8 19 -9 24 -21 6z m-4 -49 c0 -5 -4
-10 -10 -10 -5 0 -10 5 -10 10 0 6 5 10 10 10 6 0 10 -4 10 -10z"/>
<path d="M4714 4322 c-6 -4 -19 -24 -29 -44 -13 -29 -23 -38 -42 -38 -16 0
-27 7 -30 20 -7 28 -38 25 -51 -5 -11 -24 -11 -25 29 -25 22 0 50 -5 61 -11
14 -8 23 -8 31 0 6 6 21 11 34 11 31 0 63 33 56 58 -6 26 -40 18 -39 -10 1
-12 -5 -23 -11 -25 -19 -7 -16 44 2 51 8 3 15 10 15 16 0 12 -10 13 -26 2z"/>
<path d="M4628 4303 c7 -3 16 -2 19 1 4 3 -2 6 -13 5 -11 0 -14 -3 -6 -6z"/>
<path d="M4901 4264 c0 -11 3 -14 6 -6 3 7 2 16 -1 19 -3 4 -6 -2 -5 -13z"/>
<path d="M3900 4250 c-12 -8 -10 -10 8 -10 13 0 20 4 17 10 -7 12 -6 12 -25 0z"/>
<path d="M0 4240 c0 -5 18 -10 40 -10 22 0 40 5 40 10 0 6 -18 10 -40 10 -22
0 -40 -4 -40 -10z"/>
<path d="M230 4231 c0 -14 22 -18 60 -10 19 3 28 7 20 9 -52 8 -80 9 -80 1z"/>
<path d="M280 4201 c0 -10 24 -21 43 -21 7 0 3 7 -7 15 -22 17 -36 19 -36 6z"/>
<path d="M523 4204 c5 -5 23 -10 40 -10 18 -1 124 -9 237 -19 113 -9 248 -18
300 -21 52 -2 138 -7 190 -10 52 -3 92 -3 87 2 -4 4 -26 9 -50 10 -57 4 -298
22 -432 33 -190 16 -380 24 -372 15z"/>
<path d="M4701 4203 c0 -5 4 -17 9 -28 8 -18 9 -17 9 8 1 15 -3 27 -9 27 -5 0
-10 -3 -9 -7z"/>
<path d="M4517 4163 c6 -16 5 -16 -10 -4 -11 9 -17 10 -17 2 0 -6 -9 -11 -20
-11 -20 0 -20 -1 -3 -27 13 -19 14 -28 5 -31 -23 -7 -12 -21 28 -33 23 -7 40
-18 40 -27 0 -9 6 -12 16 -8 9 3 21 6 27 6 6 0 0 11 -13 25 -13 14 -29 25 -36
25 -18 0 -25 53 -8 71 13 15 10 29 -7 29 -5 0 -5 -8 -2 -17z"/>
<path d="M1456 4151 c-4 -7 -5 -15 -2 -18 9 -9 19 4 14 18 -4 11 -6 11 -12 0z"/>
<path d="M4551 4151 c-7 -5 -10 -14 -7 -20 11 -17 24 -13 36 9 12 22 -3 27
-29 11z"/>
<path d="M4398 4137 c9 -10 8 -22 0 -45 -13 -35 -9 -46 15 -36 35 13 29 73 -9
88 -13 5 -14 4 -6 -7z"/>
<path d="M1356 4078 c4 -13 7 -29 7 -35 0 -7 7 -13 15 -13 10 0 12 6 7 18 -4
9 -10 25 -12 35 -3 9 -10 17 -15 17 -5 0 -6 -10 -2 -22z"/>
<path d="M1320 4040 c0 -5 7 -10 16 -10 8 0 12 5 9 10 -3 6 -10 10 -16 10 -5
0 -9 -4 -9 -10z"/>
<path d="M4186 4001 c-3 -4 3 -16 14 -26 11 -10 20 -28 20 -39 0 -14 3 -17 8
-9 6 10 17 8 46 -8 36 -19 57 -20 119 -3 25 8 21 24 -5 21 -15 -1 -23 3 -23
13 -1 22 -14 40 -31 40 -11 0 -13 -6 -9 -21 7 -19 4 -21 -20 -15 -15 4 -44 18
-66 31 -43 28 -46 29 -53 16z"/>
<path d="M205 3990 c-3 -5 1 -10 9 -10 9 0 16 5 16 10 0 6 -4 10 -9 10 -6 0
-13 -4 -16 -10z"/>
<path d="M46 3943 c-4 -9 -3 -20 2 -25 6 -6 11 1 14 16 6 29 -6 35 -16 9z"/>
<path d="M2979 3936 c-2 -2 -61 -6 -131 -9 l-126 -5 -35 -34 c-19 -18 -37 -45
-41 -60 -3 -16 -13 -28 -22 -28 -16 0 -35 -39 -26 -54 6 -10 9 -35 11 -85 2
-48 10 -34 12 21 2 36 6 45 18 43 11 -1 15 -10 13 -28 -2 -14 2 -28 7 -32 6
-3 11 -2 11 3 0 6 7 12 14 15 11 5 14 -1 11 -22 -4 -33 6 -51 29 -55 10 -1 21
-7 24 -13 23 -34 186 -42 204 -9 7 12 5 16 -10 16 -10 0 -23 -5 -29 -11 -8 -8
-13 -8 -18 0 -8 15 19 25 51 18 16 -3 28 1 31 9 4 11 9 12 19 4 7 -6 27 -10
45 -8 31 3 32 4 16 20 -9 9 -17 22 -17 29 0 34 -155 108 -199 95 -9 -3 -32 -1
-51 3 -32 8 -33 9 -7 10 15 1 27 6 27 11 0 6 11 10 24 10 14 0 27 4 30 9 3 4
20 11 38 15 26 5 30 9 18 16 -8 5 -10 10 -5 10 6 0 24 -9 40 -20 19 -13 39
-18 55 -15 17 4 34 -2 54 -20 16 -13 32 -22 37 -20 4 3 10 1 14 -5 11 -18 35
-12 29 8 -13 39 -40 88 -60 107 -61 58 -90 75 -105 61z m-199 -263 c0 -26 -1
-26 -14 -8 -14 20 -12 35 5 35 5 0 9 -12 9 -27z m150 -3 c0 -5 -4 -10 -10 -10
-5 0 -10 5 -10 10 0 6 5 10 10 10 6 0 10 -4 10 -10z m-53 -66 c-3 -3 -12 -4
-19 -1 -8 3 -5 6 6 6 11 1 17 -2 13 -5z"/>
<path d="M4430 3926 c0 -9 30 -14 35 -6 4 6 -3 10 -14 10 -12 0 -21 -2 -21 -4z"/>
<path d="M4480 3920 c0 -5 5 -10 10 -10 6 0 10 5 10 10 0 6 -4 10 -10 10 -5 0
-10 -4 -10 -10z"/>
<path d="M4510 3920 c0 -5 10 -10 23 -11 48 -2 134 -8 202 -13 125 -9 390 -19
385 -13 -5 5 -196 19 -425 32 -55 3 -119 8 -142 11 -26 3 -43 1 -43 -6z"/>
<path d="M2036 3887 c4 -11 -6 -17 -33 -22 -26 -4 -50 -19 -75 -47 -21 -22
-38 -43 -39 -46 0 -4 -2 -16 -4 -27 -3 -19 -3 -19 9 -3 7 10 16 15 19 12 3 -4
20 -2 36 4 19 7 33 7 36 1 4 -5 14 -9 23 -8 14 0 14 2 -2 8 -19 7 -19 8 0 15
36 15 84 24 78 15 -3 -5 10 -8 28 -8 18 1 25 3 15 6 -9 2 -15 8 -12 13 9 15
45 -2 45 -21 0 -15 -7 -19 -35 -19 -33 0 -107 -27 -113 -43 -2 -4 -7 -5 -12
-2 -14 9 -42 -27 -37 -46 3 -11 1 -19 -4 -19 -5 0 -9 -9 -9 -21 0 -19 4 -20
49 -16 52 5 64 1 73 -24 9 -24 92 -32 157 -15 30 8 61 12 68 9 7 -3 13 0 13 7
0 6 -4 9 -9 6 -18 -12 2 35 22 49 12 8 17 20 14 29 -8 20 3 20 31 0 22 -15 24
-15 29 4 3 13 10 19 20 15 8 -3 13 -14 10 -24 -3 -11 -2 -19 3 -19 10 0 19 73
10 80 -10 7 -8 40 2 34 12 -7 10 21 -3 50 -7 14 -23 26 -40 30 -16 3 -29 12
-29 20 0 21 -31 26 -192 32 -126 4 -147 3 -142 -9z m224 -201 c0 -8 -4 -18
-10 -21 -5 -3 -10 3 -10 14 0 12 5 21 10 21 6 0 10 -6 10 -14z m-140 -86 c0
-5 -10 -10 -22 -10 -19 0 -20 2 -8 10 19 13 30 13 30 0z"/>
<path d="M1596 3744 c-4 -15 -2 -32 3 -37 8 -8 11 0 11 26 0 44 -5 47 -14 11z"/>
<path d="M200 3741 c0 -10 30 -24 37 -17 3 3 2 9 -2 15 -8 13 -35 15 -35 2z"/>
<path d="M3660 3721 c0 -5 7 -12 16 -15 14 -5 15 -4 4 9 -14 17 -20 19 -20 6z"/>
<path d="M3722 3705 c-12 -14 -29 -25 -38 -25 -13 0 -14 -9 -9 -52 4 -29 9
-56 11 -59 2 -3 -7 -4 -19 -2 -18 4 -23 0 -24 -19 0 -13 1 -17 4 -10 3 6 13
12 24 12 15 0 19 -7 19 -35 0 -33 -1 -34 -32 -29 l-33 5 30 -26 c20 -18 26
-29 18 -32 -7 -2 -13 -14 -13 -25 0 -18 -4 -19 -35 -14 -51 10 -59 0 -35 -40
12 -19 17 -34 11 -34 -6 0 -11 6 -11 13 0 18 -79 52 -91 40 -13 -13 -112 -4
-121 11 -4 6 -11 7 -15 2 -4 -5 -3 -10 2 -12 13 -5 10 -121 -4 -158 -8 -20 -9
-32 -1 -40 13 -13 13 -39 -1 -30 -6 3 -24 -3 -40 -15 -15 -11 -36 -21 -46 -21
-28 0 -44 -15 -47 -41 -6 -43 -17 -104 -23 -119 -31 -82 -55 -150 -62 -176
-11 -43 2 -124 23 -136 9 -5 16 -19 16 -32 0 -13 7 -29 15 -36 12 -10 15 -10
15 4 0 9 7 16 15 16 10 0 15 10 15 30 0 17 4 30 10 30 5 0 7 -13 4 -29 -6 -28
9 -69 30 -83 20 -14 36 -8 36 11 0 33 -11 51 -32 51 -16 0 -19 6 -16 32 3 32
28 53 28 24 0 -25 15 -19 26 9 l9 26 40 -22 c53 -28 53 -28 31 -45 -18 -13
-18 -14 8 -23 26 -11 36 -44 16 -56 -12 -7 -14 -65 -2 -65 14 0 31 22 26 35
-8 19 23 85 40 85 9 0 12 7 9 19 -8 30 18 37 39 11 l18 -22 0 27 c0 24 2 26
15 15 13 -11 20 -11 40 0 14 7 25 18 25 23 0 5 6 4 14 -2 9 -8 44 -11 94 -9
44 2 84 0 88 -4 4 -4 7 -29 7 -55 0 -39 -4 -47 -17 -45 -25 5 -19 -11 14 -33
16 -11 30 -27 30 -35 0 -8 3 -25 6 -37 5 -18 2 -23 -12 -24 -15 0 -13 -3 7
-12 14 -7 33 -18 41 -25 9 -7 23 -9 32 -6 22 8 16 40 -7 36 -26 -4 -20 17 7
30 14 6 27 17 30 24 6 17 4 17 -27 3 -17 -7 -31 -8 -42 -2 -15 9 -14 11 9 17
14 3 26 11 26 16 0 6 6 10 14 10 23 0 31 22 12 32 -20 11 -20 27 -1 52 11 15
17 16 28 7 20 -16 39 -6 58 31 16 34 39 49 39 25 0 -15 74 -21 400 -32 85 -3
198 -7 250 -10 52 -3 134 -5 183 -6 68 -1 87 -5 87 -16 0 -8 16 -21 35 -29 37
-15 39 -40 4 -46 -12 -2 -16 -7 -10 -16 6 -10 14 -9 39 5 18 10 32 21 32 26 0
4 0 10 0 15 0 4 -6 7 -12 7 -7 0 -12 9 -11 19 1 13 -4 16 -17 13 -11 -3 -27 2
-37 10 -17 13 -16 14 10 10 15 -2 27 0 27 4 0 5 -33 9 -72 10 -40 0 -84 2 -98
3 -14 2 -117 7 -230 11 -113 4 -208 8 -211 11 -3 2 -80 4 -170 5 -172 1 -204
8 -196 40 4 14 -1 21 -19 25 -19 5 -29 0 -45 -20 l-21 -27 -16 23 c-9 13 -22
27 -29 31 -7 4 -13 16 -13 26 0 9 -7 26 -15 37 -13 16 -16 17 -25 4 -7 -11 -9
-7 -7 16 1 19 7 30 14 27 7 -3 10 3 6 17 -4 14 -1 20 7 18 13 -3 14 1 26 105
7 70 3 77 -30 52 -25 -19 -36 -19 -36 0 0 8 -9 15 -20 15 -26 0 -26 -27 -1
-54 11 -12 23 -34 27 -50 7 -27 5 -29 -19 -22 -19 4 -25 3 -22 -6 3 -7 1 -19
-3 -26 -12 -18 -62 2 -69 28 -7 25 -12 25 -29 3 -10 -14 -13 -15 -14 -4 0 8 7
23 17 33 14 16 14 18 0 18 -8 0 -17 -5 -19 -11 -2 -6 -4 9 -6 34 -1 38 2 48
23 61 13 9 31 16 39 16 9 0 13 7 9 23 -4 21 -3 20 21 -6 18 -20 26 -23 26 -13
0 19 45 21 87 5 15 -7 45 -13 65 -13 20 -1 46 -10 56 -19 10 -9 23 -17 28 -17
6 0 23 -13 38 -29 20 -21 24 -30 14 -34 -9 -3 -5 -12 15 -31 17 -17 27 -38 28
-59 2 -27 2 -28 6 -7 6 31 23 51 23 27 0 -9 7 -17 16 -17 8 0 12 -5 8 -11 -3
-6 0 -15 7 -20 11 -6 11 -11 1 -21 -9 -9 -12 -9 -12 0 0 21 -26 13 -46 -13
-27 -36 -34 -31 -34 27 0 56 -8 60 -15 9 -2 -18 -7 -46 -10 -62 -8 -35 2 -89
17 -89 6 0 8 10 4 24 -5 19 0 30 21 46 24 19 37 21 81 17 49 -5 52 -4 40 11
-7 9 -17 20 -22 23 -17 13 18 64 49 70 28 6 29 7 8 14 -13 4 -23 12 -23 17 0
21 33 64 57 75 22 11 26 10 30 -7 3 -11 9 -20 14 -20 16 0 10 20 -11 37 -11
10 -20 27 -19 38 0 11 3 14 6 8 2 -7 16 -13 31 -13 l26 0 -27 28 c-15 15 -27
38 -27 49 0 12 -4 25 -10 28 -5 3 -10 -2 -10 -12 0 -10 -6 -30 -14 -45 -8 -15
-12 -36 -9 -48 4 -15 1 -20 -15 -20 -11 0 -22 7 -26 15 -3 8 -1 15 4 15 6 0
10 5 10 11 0 7 -12 8 -32 4 -18 -3 -28 -3 -22 2 17 13 24 43 15 61 -5 9 -12
25 -15 35 -10 32 -28 6 -24 -37 2 -34 0 -41 -14 -38 -9 1 -22 -7 -28 -18 -16
-29 -28 -25 -32 13 l-4 32 -12 -27 c-13 -32 -62 -41 -62 -12 0 12 -6 15 -25
10 -17 -4 -25 -2 -25 6 0 7 -18 22 -40 32 -41 20 -52 36 -24 36 11 0 14 6 9
20 -7 22 5 26 22 9 9 -9 10 -7 6 10 -3 11 -10 21 -15 21 -5 0 -7 8 -4 18 7 22
-8 47 -23 38 -6 -4 -8 -18 -5 -32 5 -18 0 -31 -19 -50 -15 -15 -28 -21 -32
-14 -3 5 -17 7 -31 4 -20 -5 -24 -2 -24 15 0 12 -6 21 -15 21 -8 0 -15 -7 -15
-15 0 -11 -7 -14 -27 -10 -24 5 -25 4 -8 -5 25 -12 77 -32 90 -35 6 -1 16 -3
23 -3 13 -2 17 -52 4 -52 -5 0 -39 9 -75 21 -63 20 -67 23 -67 50 0 17 -6 32
-15 35 -21 8 -18 44 4 72 26 31 34 28 26 -10 -6 -31 -5 -32 10 -14 8 11 15 23
15 28 0 4 7 8 15 8 9 0 15 9 15 24 0 18 8 27 29 34 16 6 32 8 35 5 12 -12 6
13 -6 26 -7 8 -8 12 -3 9 6 -3 19 -2 30 2 19 7 18 8 -10 26 -16 10 -30 28 -30
38 0 43 -29 24 -39 -26 -3 -17 -16 -19 -31 -5 -17 18 -20 37 -5 37 6 0 10 7
10 17 0 15 -1 15 -18 0 -10 -10 -26 -17 -35 -17 -11 0 -17 -8 -17 -21 0 -11
-7 -27 -15 -35 -8 -9 -15 -20 -15 -26 0 -5 7 -8 15 -4 8 3 15 2 15 -3 0 -10
-30 -19 -47 -14 -12 4 -10 18 8 58 4 11 10 33 11 50 2 19 11 34 25 41 17 8 20
13 11 22 -9 9 -9 18 0 37 23 50 4 65 -22 18 l-15 -28 -1 27 c0 15 5 30 10 33
6 4 9 14 8 23 -2 12 5 18 25 20 28 3 39 22 12 22 -11 0 -14 7 -9 25 3 14 2 25
-3 25 -5 0 -19 -11 -31 -25z m-206 -372 c-10 -10 -19 5 -10 18 6 11 8 11 12 0
2 -7 1 -15 -2 -18z m286 12 c0 -5 -5 -11 -11 -13 -6 -2 -11 4 -11 13 0 9 5 15
11 13 6 -2 11 -8 11 -13z m-378 -30 c3 -9 0 -15 -9 -15 -8 0 -15 7 -15 15 0 8
4 15 9 15 5 0 11 -7 15 -15z m271 7 c14 -10 17 -39 5 -47 -5 -3 -10 -15 -10
-26 0 -10 -6 -19 -14 -19 -11 0 -15 13 -14 50 1 48 10 59 33 42z m-95 -67
c-12 -14 -40 -21 -40 -10 0 3 10 17 23 31 18 21 23 23 25 9 2 -9 -2 -22 -8
-30z m140 35 c0 -5 -4 -10 -10 -10 -5 0 -10 5 -10 10 0 6 5 10 10 10 6 0 10
-4 10 -10z m-287 -31 c3 -13 1 -19 -6 -16 -15 5 -22 37 -9 37 5 0 12 -9 15
-21z m37 0 c0 -18 -2 -19 -15 -9 -8 7 -15 16 -15 21 0 5 7 9 15 9 9 0 15 -9
15 -21z m240 -68 c13 -25 -2 -36 -29 -22 -14 8 -22 7 -31 -4 -10 -12 -9 -15 7
-15 10 0 28 -7 39 -15 19 -15 19 -15 0 -30 -24 -18 -58 -20 -54 -2 2 6 -2 13
-7 15 -6 1 -10 -3 -10 -10 0 -6 -6 -13 -12 -15 -7 -3 -13 0 -13 6 0 6 6 29 13
52 9 31 19 42 42 48 43 13 43 13 55 -8z m-250 -15 c0 -15 -14 -35 -21 -30 -15
9 -10 34 6 34 8 0 15 -2 15 -4z m64 -21 c9 -36 -3 -53 -21 -30 -7 11 -13 27
-13 37 0 27 27 22 34 -7z m62 -22 c-11 -11 -19 6 -11 24 8 17 8 17 12 0 3 -10
2 -21 -1 -24z m-196 -13 c0 -6 -12 -15 -26 -20 -32 -12 -34 -12 -34 0 0 6 7
10 15 10 8 0 15 5 15 10 0 6 7 10 15 10 8 0 15 -5 15 -10z m30 -20 c0 -5 -5
-10 -11 -10 -5 0 -7 5 -4 10 3 6 8 10 11 10 2 0 4 -4 4 -10z m320 2 c0 -5 -13
-18 -30 -30 -35 -26 -40 -17 -7 15 23 23 37 29 37 15z m240 -2 c0 -5 -9 -10
-20 -10 -11 0 -20 5 -20 10 0 6 9 10 20 10 11 0 20 -4 20 -10z m-675 -19 c3
-5 1 -12 -5 -16 -5 -3 -10 1 -10 9 0 18 6 21 15 7z m90 -11 c22 -24 14 -36
-13 -21 -11 6 -28 8 -36 5 -22 -8 -20 13 2 25 24 14 26 14 47 -9z m165 -29 c0
-23 -14 -41 -30 -41 -10 0 -21 -8 -25 -17 -9 -24 -5 -29 19 -25 20 4 20 3 -4
-23 -14 -15 -23 -29 -22 -31 2 -2 1 -22 -3 -43 -5 -32 -12 -42 -37 -50 -34
-12 -48 -7 -48 15 0 9 -7 22 -15 31 -13 12 -20 13 -45 1 -29 -12 -44 -46 -17
-35 7 3 19 -4 26 -14 6 -11 16 -17 21 -14 6 3 10 2 10 -3 0 -12 -24 -22 -52
-22 -15 0 -19 5 -15 19 2 10 -1 18 -7 18 -39 -1 -46 4 -46 32 0 28 22 61 40
61 5 0 17 8 27 19 10 10 36 22 58 26 51 9 75 22 75 40 0 8 7 15 15 15 8 0 15
6 15 13 0 7 10 17 23 23 29 15 37 16 37 5z m84 -17 c9 -24 -23 -57 -41 -43 -7
6 -13 21 -13 33 1 20 2 20 14 4 18 -24 25 -23 19 2 -6 24 12 27 21 4z m546 1
c0 -17 -4 -18 -37 -9 -33 9 -28 24 7 24 20 0 30 -5 30 -15z m-802 -20 c7 -7
-43 -55 -57 -55 -4 0 -7 9 -7 20 1 28 -18 30 -22 2 -4 -25 -25 -25 -30 0 -6
29 28 51 71 45 21 -3 42 -8 45 -12z m-151 -18 c-2 -7 3 -17 12 -24 11 -8 12
-12 4 -13 -22 0 -52 37 -40 49 12 12 30 4 24 -12z m189 -14 c-10 -10 -19 5
-10 18 6 11 8 11 12 0 2 -7 1 -15 -2 -18z m851 1 c-9 -9 -28 6 -21 18 4 6 10
6 17 -1 6 -6 8 -13 4 -17z m-617 -10 c0 -10 -6 -14 -15 -10 -10 4 -15 -1 -15
-14 0 -11 7 -20 15 -20 8 0 15 -4 15 -10 0 -5 -11 -10 -25 -10 -26 0 -32 -9
-15 -26 14 -14 1 -74 -16 -74 -10 0 -12 -11 -8 -42 6 -53 -6 -75 -32 -59 -15
8 -15 10 -4 11 9 0 16 10 18 26 1 14 -2 23 -7 20 -14 -9 -41 4 -41 20 0 8 7
14 15 14 9 0 15 9 15 25 0 18 -5 25 -19 25 -26 0 -36 17 -21 35 13 16 40 9 40
-11 0 -8 10 -14 22 -14 20 0 20 1 4 19 -16 17 -15 19 9 35 14 9 25 24 25 34 0
19 18 42 32 42 4 0 8 -7 8 -16z m540 -24 c0 -19 -11 -26 -23 -14 -8 8 3 34 14
34 5 0 9 -9 9 -20z m40 10 c0 -5 -4 -10 -10 -10 -5 0 -10 5 -10 10 0 6 5 10
10 10 6 0 10 -4 10 -10z m-1004 -21 c9 -16 -12 -33 -31 -25 -14 5 -15 9 -5 21
15 18 26 19 36 4z m344 3 c0 -5 -9 -17 -20 -27 -18 -17 -20 -17 -26 0 -4 10
-1 21 7 26 18 11 39 12 39 1z m660 -32 c0 -5 -4 -10 -10 -10 -5 0 -10 5 -10
10 0 6 5 10 10 10 6 0 10 -4 10 -10z m-494 -30 c45 -32 56 -56 29 -66 -8 -4
-15 -12 -15 -20 0 -8 -7 -14 -15 -14 -8 0 -15 -6 -15 -13 0 -12 -42 -38 -83
-51 -29 -9 -31 20 -7 102 12 42 25 80 27 85 8 14 35 6 79 -23z m-496 -22 c0
-16 -3 -19 -11 -11 -6 6 -8 16 -5 22 11 17 16 13 16 -11z m-30 -27 c23 -44 15
-55 -73 -99 -5 -3 3 17 17 42 14 26 26 53 26 61 0 21 17 18 30 -4z m275 -68
c-4 -21 -9 -46 -12 -55 -5 -20 -28 -24 -38 -7 -4 5 -18 14 -31 19 -24 10 -33
30 -13 30 5 0 27 11 47 25 49 33 54 32 47 -12z m348 19 c3 -4 3 -19 0 -35 -4
-20 -11 -27 -29 -27 -13 0 -24 -4 -24 -10 0 -5 -25 -10 -55 -10 -30 0 -55 4
-55 9 0 9 60 41 77 41 6 0 18 9 28 20 18 20 50 27 58 12z m-493 -22 c0 -5 -5
-10 -11 -10 -5 0 -7 5 -4 10 3 6 8 10 11 10 2 0 4 -4 4 -10z m586 -74 c-1 -15
-6 -29 -9 -33 -4 -3 -7 -19 -7 -34 0 -15 -4 -31 -10 -34 -5 -3 -10 -15 -10
-26 0 -16 -6 -20 -27 -17 -26 3 -28 6 -31 57 -3 58 5 71 46 71 15 0 22 6 22
20 0 11 -6 20 -14 20 -14 0 -28 45 -17 55 12 13 60 -54 57 -79z m-406 60 c0
-8 -4 -18 -10 -21 -5 -3 -10 3 -10 14 0 12 5 21 10 21 6 0 10 -6 10 -14z
m-320 -16 c0 -5 -7 -10 -16 -10 -8 0 -12 5 -9 10 3 6 10 10 16 10 5 0 9 -4 9
-10z m60 -6 c0 -8 -5 -12 -10 -9 -6 4 -8 11 -5 16 9 14 15 11 15 -7z m110 -14
c0 -23 -22 -27 -39 -7 -13 16 -5 27 21 27 11 0 18 -7 18 -20z m-150 -15 c0 -8
-7 -15 -15 -15 -16 0 -20 12 -8 23 11 12 23 8 23 -8z m635 5 c3 -5 1 -10 -4
-10 -6 0 -11 5 -11 10 0 6 2 10 4 10 3 0 8 -4 11 -10z m175 -10 c0 -5 -4 -10
-10 -10 -5 0 -10 5 -10 10 0 6 5 10 10 10 6 0 10 -4 10 -10z m-580 -25 c0 -8
-4 -15 -10 -15 -5 0 -10 7 -10 15 0 8 5 15 10 15 6 0 10 -7 10 -15z"/>
<path d="M3455 2899 c-9 -14 -2 -20 14 -10 8 6 9 11 3 15 -6 3 -14 1 -17 -5z"/>
<path d="M3310 2849 c0 -11 4 -18 10 -14 5 3 7 12 3 20 -7 21 -13 19 -13 -6z"/>
<path d="M3887 2609 c7 -7 15 -10 18 -7 3 3 -2 9 -12 12 -14 6 -15 5 -6 -5z"/>
<path d="M4300 3716 c0 -8 -8 -19 -17 -25 -17 -9 -17 -11 1 -24 12 -9 15 -16
8 -21 -6 -3 -16 3 -22 14 -6 11 -17 20 -25 20 -22 0 -18 -18 5 -25 12 -4 20
-15 20 -28 0 -34 16 -55 32 -39 17 17 38 15 38 -4 0 -8 5 -12 10 -9 19 12 10
42 -15 53 -23 10 -25 16 -19 51 4 24 2 41 -5 45 -6 4 -11 1 -11 -8z"/>
<path d="M3804 3684 c-7 -26 9 -47 31 -41 15 5 18 36 5 52 -18 22 -29 18 -36
-11z"/>
<path d="M1065 3650 c3 -5 11 -10 16 -10 6 0 7 5 4 10 -3 6 -11 10 -16 10 -6
0 -7 -4 -4 -10z"/>
<path d="M3952 3639 c-23 -15 -36 -18 -45 -11 -15 12 -96 -2 -112 -20 -7 -8
-4 -9 10 -4 11 5 37 10 57 12 30 3 40 -1 53 -18 8 -13 15 -32 16 -43 0 -15 2
-16 7 -5 4 8 14 15 22 15 8 0 16 8 18 18 2 12 -3 17 -17 17 -26 0 -27 17 -2
25 21 6 49 35 35 35 -5 0 -24 -10 -42 -21z"/>
<path d="M4020 3645 c0 -8 6 -24 12 -35 14 -23 -1 -39 -64 -68 -21 -9 -38 -21
-38 -25 0 -5 -10 -17 -22 -28 -13 -10 -18 -18 -12 -19 6 0 28 16 48 35 30 28
42 33 66 28 23 -4 30 -2 30 11 0 9 4 16 9 16 5 0 8 11 7 25 0 14 -4 25 -8 25
-5 0 -8 11 -8 25 0 14 -4 25 -10 25 -5 0 -10 -7 -10 -15z"/>
<path d="M1030 3638 c0 -8 9 -25 20 -38 24 -28 12 -47 -19 -31 -25 14 -27 8
-5 -14 13 -12 14 -21 6 -43 -16 -40 -25 -122 -14 -122 5 0 13 10 17 23 l8 22
4 -23 c5 -23 -16 -82 -29 -82 -5 0 -8 7 -8 15 0 8 -4 15 -10 15 -17 0 -11 -58
6 -68 14 -8 15 -14 6 -42 -12 -34 -8 -55 10 -44 5 3 8 15 5 25 -4 13 5 26 26
41 18 12 34 23 37 25 2 2 -2 8 -9 13 -12 7 -12 13 -1 40 10 25 11 33 1 39 -14
9 -1 76 15 76 5 0 14 3 19 6 11 7 43 6 205 -6 58 -4 111 -12 118 -17 8 -8 12
-6 12 5 0 17 -33 23 -192 33 -60 3 -108 11 -108 16 0 6 -6 8 -14 5 -19 -8 -19
53 1 75 22 24 8 36 -16 14 -19 -17 -20 -17 -23 6 -2 13 -9 22 -17 20 -7 -2
-22 5 -32 14 -16 14 -19 15 -19 2z m65 -98 c3 -6 -1 -17 -9 -26 -9 -8 -16 -24
-16 -35 0 -11 -4 -18 -9 -14 -5 3 -6 17 -2 33 4 15 6 33 4 40 -5 14 23 16 32
2z"/>
<path d="M4125 3610 c3 -40 11 -46 25 -20 9 16 9 25 -1 36 -18 22 -27 17 -24
-16z"/>
<path d="M4200 3632 c0 -5 9 -28 21 -52 15 -30 23 -39 29 -30 5 7 7 18 5 24
-2 6 -6 23 -9 39 -4 18 -13 27 -26 27 -11 0 -20 -4 -20 -8z"/>
<path d="M770 3614 c0 -8 5 -12 10 -9 6 3 10 10 10 16 0 5 -4 9 -10 9 -5 0
-10 -7 -10 -16z"/>
<path d="M2310 3621 c0 -5 5 -13 10 -16 6 -3 10 -2 10 4 0 5 -4 13 -10 16 -5
3 -10 2 -10 -4z"/>
<path d="M3620 3620 c-11 -7 -7 -10 18 -10 20 0 31 4 27 10 -8 13 -26 13 -45
0z"/>
<path d="M4088 3608 c-7 -19 6 -61 20 -66 9 -3 10 3 2 22 -5 14 -7 33 -4 41 4
8 2 15 -4 15 -5 0 -12 -6 -14 -12z"/>
<path d="M3990 3600 c0 -6 7 -10 15 -10 8 0 15 2 15 4 0 2 -7 6 -15 10 -8 3
-15 1 -15 -4z"/>
<path d="M1470 3559 c0 -5 5 -7 10 -4 6 3 10 8 10 11 0 2 -4 4 -10 4 -5 0 -10
-5 -10 -11z"/>
<path d="M3832 3550 c0 -14 2 -19 5 -12 2 6 2 18 0 25 -3 6 -5 1 -5 -13z"/>
<path d="M120 3540 c20 -13 40 -13 40 0 0 6 -12 10 -27 10 -22 0 -25 -2 -13
-10z"/>
<path d="M190 3540 c0 -5 4 -10 9 -10 6 0 13 5 16 10 3 6 -1 10 -9 10 -9 0
-16 -4 -16 -10z"/>
<path d="M824 3502 c3 -6 14 -10 24 -10 9 0 51 -2 92 -6 46 -4 70 -3 65 3 -15
14 -190 27 -181 13z"/>
<path d="M2331 3340 c-6 -18 -6 -28 -1 -25 6 4 10 13 10 21 0 8 5 14 10 14 6
0 10 5 10 10 0 22 -19 8 -29 -20z"/>
<path d="M2686 3359 c3 -5 12 -9 20 -9 8 0 14 -4 14 -8 0 -5 9 -19 20 -32 11
-13 20 -29 20 -36 0 -7 6 -15 13 -17 7 -4 6 -6 -5 -6 -9 -1 -18 -6 -20 -13 -3
-7 -12 -6 -30 6 -19 13 -31 14 -52 7 -14 -6 -26 -8 -26 -4 0 4 -10 -3 -22 -13
-24 -21 -78 -31 -78 -14 0 6 5 10 10 10 6 0 10 5 10 12 0 9 -3 9 -12 0 -17
-17 -46 -15 -65 4 -11 10 -18 12 -23 5 -4 -8 -15 -7 -36 3 -33 17 -80 11 -88
-11 -3 -8 2 -28 11 -44 16 -27 21 -28 92 -31 l75 -3 0 -47 c1 -26 5 -47 11
-46 5 0 27 -6 47 -15 21 -10 44 -17 53 -17 8 0 15 -5 15 -11 0 -6 -8 -8 -19
-4 -11 3 -22 1 -26 -5 -4 -6 -13 -9 -21 -6 -7 3 -16 1 -19 -4 -3 -5 -23 -3
-46 6 -33 11 -55 12 -107 3 -76 -12 -114 -6 -106 16 4 8 1 15 -4 15 -6 0 -12
-7 -14 -15 -2 -12 -9 -10 -30 10 l-28 26 -51 -17 c-36 -12 -47 -19 -37 -26 10
-7 9 -11 -6 -23 -11 -8 -15 -15 -9 -15 6 0 9 -8 6 -19 -2 -10 3 -25 11 -34 19
-18 21 -31 4 -21 -7 4 -8 3 -4 -5 4 -6 13 -8 19 -4 7 4 37 13 67 20 50 10 59
9 108 -12 28 -13 52 -28 52 -33 0 -6 11 -13 25 -16 14 -4 25 -13 25 -21 0 -8
7 -15 15 -15 8 0 15 -7 15 -16 0 -8 3 -13 8 -10 4 2 18 -2 32 -10 14 -7 20
-13 14 -14 -6 0 -11 -7 -11 -16 0 -10 7 -14 18 -11 10 3 20 0 23 -7 3 -7 5 -7
5 2 1 17 21 15 21 -3 0 -21 12 -19 33 5 19 22 22 35 8 25 -5 -3 -12 -1 -15 4
-6 10 17 33 30 30 22 -4 32 3 37 24 4 12 15 27 26 32 11 6 42 24 69 42 l49 31
27 -24 c22 -21 29 -23 47 -14 19 11 20 10 14 -11 -7 -22 -7 -22 18 2 34 32 47
69 47 136 0 49 -4 59 -34 89 -30 30 -34 32 -39 14 -3 -11 -17 -22 -33 -25 -16
-4 -39 -11 -51 -17 -32 -16 -57 -4 -43 22 9 16 8 19 -6 13 -13 -5 -15 -3 -9 8
8 12 6 12 -8 0 -15 -12 -17 -11 -17 3 0 9 5 16 10 16 6 0 10 6 10 13 0 8 9 22
20 32 11 10 20 24 20 32 0 7 6 13 14 13 9 0 12 7 9 20 -3 11 -9 20 -14 20 -5
0 -9 9 -9 20 0 12 -12 26 -30 35 -17 9 -28 20 -26 24 3 5 -5 9 -19 9 -14 0
-22 -4 -19 -9z m21 -231 c-3 -8 -6 -5 -6 6 -1 11 2 17 5 13 3 -3 4 -12 1 -19z
m-197 -202 c75 -7 76 -8 35 -17 -69 -14 -118 -10 -145 12 l-25 20 45 -5 c25
-3 65 -7 90 -10z"/>
<path d="M3909 3330 c14 -6 53 -11 88 -12 42 -1 63 -5 63 -13 0 -7 9 -20 20
-30 11 -10 20 -13 20 -8 0 6 -7 16 -15 23 -23 19 -9 28 32 24 21 -3 133 -9
248 -14 116 -5 278 -14 360 -19 83 -5 159 -9 170 -8 51 2 75 -4 75 -18 0 -8
-4 -15 -10 -15 -5 0 -10 -4 -10 -10 0 -5 6 -7 14 -4 8 3 17 0 22 -7 4 -7 2
-15 -4 -17 -19 -6 -14 -22 8 -22 23 0 54 -53 47 -81 -3 -11 -1 -19 5 -19 18 0
3 -33 -16 -36 -11 -1 -23 -10 -28 -18 -7 -13 -14 -14 -29 -6 -23 13 -26 -2 -4
-20 9 -7 14 -22 13 -34 -2 -16 3 -22 22 -24 14 -2 29 -10 33 -18 9 -16 37 -19
37 -3 0 6 -13 22 -30 36 -34 28 -35 32 -17 57 13 17 15 17 55 -3 32 -17 42
-18 42 -7 0 7 -7 19 -15 26 -9 7 -14 19 -11 26 3 8 0 17 -7 21 -23 15 -38 54
-32 84 6 25 4 29 -14 29 -16 0 -21 6 -21 25 0 16 -6 25 -15 25 -20 0 -19 12 5
55 24 43 24 42 2 40 -29 -2 -40 -14 -35 -36 5 -19 3 -21 -23 -16 -16 3 -99 9
-184 12 -85 3 -222 10 -305 15 -82 5 -204 12 -270 15 -66 3 -163 8 -215 10
-72 4 -89 3 -71 -5z"/>
<path d="M50 3319 c0 -5 6 -9 14 -9 8 0 19 -14 25 -31 9 -26 8 -30 -3 -26 -8
3 -30 9 -48 12 -32 6 -33 5 -35 -29 -2 -40 20 -49 43 -18 12 15 12 15 7 -7 -4
-16 -2 -22 4 -18 6 4 13 -2 16 -13 5 -20 37 -29 37 -10 0 6 7 10 15 10 8 0 15
8 15 18 0 10 5 23 12 30 9 9 9 15 0 24 -7 7 -12 21 -12 31 0 16 -3 17 -15 7
-12 -10 -16 -8 -24 12 -8 23 -51 37 -51 17z"/>
<path d="M5030 3290 c-11 -6 -12 -12 -4 -20 13 -13 46 -2 41 13 -5 15 -20 18
-37 7z"/>
<path d="M4145 3271 c-25 -13 -27 -16 -11 -19 10 -2 25 3 34 12 22 22 12 25
-23 7z"/>
<path d="M1420 3255 c-13 -16 -6 -35 15 -35 7 0 12 10 11 25 -1 28 -8 31 -26
10z"/>
<path d="M1105 3240 c3 -5 8 -10 11 -10 2 0 4 5 4 10 0 6 -5 10 -11 10 -5 0
-7 -4 -4 -10z"/>
<path d="M4094 3225 c6 -17 -9 -21 -19 -5 -3 6 -14 10 -23 10 -15 -1 -15 -2 1
-15 22 -16 19 -62 -3 -56 -55 13 -56 13 -37 -2 9 -8 17 -19 17 -26 0 -8 5 -9
18 -2 10 6 29 7 42 4 20 -5 22 -3 17 18 -3 13 -2 31 3 39 8 12 13 13 30 2 27
-16 28 7 2 31 -24 22 -56 23 -48 2z"/>
<path d="M1660 3195 c0 -8 5 -15 10 -15 6 0 10 7 10 15 0 8 -4 15 -10 15 -5 0
-10 -7 -10 -15z"/>
<path d="M4805 3180 c9 -29 -12 -70 -36 -70 -19 0 -21 -4 -15 -32 10 -51 29
-53 29 -3 0 14 5 25 13 25 8 0 14 -7 14 -15 0 -18 26 -20 36 -3 4 6 0 16 -9
23 -22 16 -22 26 0 18 13 -5 15 -2 10 11 -4 10 -7 26 -7 36 0 10 -9 20 -20 23
-17 4 -20 2 -15 -13z"/>
<path d="M2865 3160 c3 -5 8 -10 11 -10 2 0 4 5 4 10 0 6 -5 10 -11 10 -5 0
-7 -4 -4 -10z"/>
<path d="M4714 3156 c-4 -10 -2 -22 4 -28 8 -8 13 -7 18 6 4 10 2 22 -4 28 -8
8 -13 7 -18 -6z"/>
<path d="M1700 3140 c0 -5 5 -10 11 -10 5 0 7 5 4 10 -3 6 -8 10 -11 10 -2 0
-4 -4 -4 -10z"/>
<path d="M4396 3135 c-3 -9 -6 -24 -5 -33 0 -9 5 -4 10 12 9 32 6 48 -5 21z"/>
<path d="M0 3120 c0 -5 5 -10 11 -10 5 0 7 5 4 10 -3 6 -8 10 -11 10 -2 0 -4
-4 -4 -10z"/>
<path d="M4670 3122 c0 -5 7 -13 16 -16 10 -4 14 -1 12 6 -5 15 -28 23 -28 10z"/>
<path d="M2417 3094 c-6 -10 9 -42 16 -34 3 3 1 14 -3 24 -3 11 -9 15 -13 10z"/>
<path d="M4584 3074 l-7 -27 -18 24 c-10 13 -21 20 -25 16 -4 -4 0 -15 10 -26
16 -17 15 -19 -14 -31 -23 -10 -34 -10 -42 -2 -8 8 -15 9 -25 1 -20 -17 -16
-29 10 -29 13 0 28 -5 35 -12 6 -6 15 -8 19 -4 4 4 1 11 -7 16 -8 6 -13 10
-10 11 3 0 15 2 28 5 17 3 25 -2 32 -21 10 -26 29 -34 31 -12 1 6 2 17 4 22 1
6 3 14 3 18 1 5 12 1 24 -7 24 -17 68 -22 68 -7 0 5 -9 11 -21 14 -17 5 -18 8
-8 25 10 16 10 23 0 36 -18 21 -31 20 -31 -2 0 -19 -18 -42 -33 -42 -5 0 -6
14 -2 30 8 38 -12 41 -21 4z"/>
<path d="M4707 3094 c-15 -15 -6 -32 13 -27 12 3 19 10 17 16 -4 14 -21 19
-30 11z"/>
<path d="M45 3080 c4 -6 11 -8 16 -5 14 9 11 15 -7 15 -8 0 -12 -5 -9 -10z"/>
<path d="M2054 3079 c-3 -6 -1 -16 5 -22 8 -8 11 -5 11 11 0 24 -5 28 -16 11z"/>
<path d="M3770 3026 c0 -9 7 -19 15 -23 25 -9 27 2 5 22 -18 17 -20 17 -20 1z"/>
<path d="M1462 2999 c2 -6 8 -10 13 -10 5 0 11 4 13 10 2 6 -4 11 -13 11 -9 0
-15 -5 -13 -11z"/>
<path d="M4940 2980 c0 -5 5 -10 10 -10 6 0 10 5 10 10 0 6 -4 10 -10 10 -5 0
-10 -4 -10 -10z"/>
<path d="M4650 2970 c0 -5 7 -10 15 -10 8 0 15 5 15 10 0 6 -7 10 -15 10 -8 0
-15 -4 -15 -10z"/>
<path d="M5110 2880 c0 -11 -4 -20 -10 -20 -5 0 -10 -7 -10 -16 0 -8 -7 -22
-15 -31 -14 -14 -14 -16 2 -28 9 -7 22 -11 28 -9 11 4 21 124 10 124 -3 0 -5
-9 -5 -20z"/>
<path d="M1881 2844 c0 -11 3 -14 6 -6 3 7 2 16 -1 19 -3 4 -6 -2 -5 -13z"/>
<path d="M2428 2813 c7 -3 16 -2 19 1 4 3 -2 6 -13 5 -11 0 -14 -3 -6 -6z"/>
<path d="M1550 2780 c-9 -6 -10 -10 -3 -10 6 0 15 5 18 10 8 12 4 12 -15 0z"/>
<path d="M1915 2750 c-3 -5 1 -10 10 -10 9 0 13 5 10 10 -3 6 -8 10 -10 10 -2
0 -7 -4 -10 -10z"/>
<path d="M4195 2750 c-3 -5 -1 -10 4 -10 6 0 11 5 11 10 0 6 -2 10 -4 10 -3 0
-8 -4 -11 -10z"/>
<path d="M5107 2679 c4 -13 8 -18 11 -10 2 7 -1 18 -6 23 -8 8 -9 4 -5 -13z"/>
<path d="M1965 2630 c-3 -5 -1 -10 4 -10 6 0 11 5 11 10 0 6 -2 10 -4 10 -3 0
-8 -4 -11 -10z"/>
<path d="M3563 2558 c1 -36 -12 -180 -19 -215 -7 -37 -23 -26 -17 11 8 51 -13
52 -26 1 -14 -57 -14 -65 4 -65 19 0 31 -25 39 -83 5 -32 3 -53 -4 -62 -9 -11
-7 -15 12 -19 42 -9 103 -15 91 -10 -18 8 -16 24 3 24 9 0 14 6 11 13 -2 6
-16 11 -31 9 -18 -2 -26 2 -26 13 0 11 10 15 35 15 19 0 35 -4 35 -8 0 -5 16
-8 35 -8 19 1 33 6 31 11 -2 6 -11 9 -20 9 -9 -1 -16 4 -16 12 0 8 4 14 10 14
13 0 24 45 15 60 -10 17 -45 -18 -45 -45 0 -18 -4 -21 -31 -17 -25 4 -36 0
-50 -19 -10 -13 -21 -20 -26 -16 -23 24 -6 315 23 390 4 13 1 17 -14 17 -17 0
-20 -6 -19 -32z"/>
<path d="M3148 2477 c-3 -83 -7 -97 -34 -137 -17 -25 -43 -63 -58 -85 -15 -22
-54 -70 -87 -107 -32 -37 -59 -71 -59 -76 0 -6 -4 -12 -9 -14 -18 -6 -193
-173 -203 -193 -8 -16 26 11 82 65 3 3 23 18 45 35 57 41 167 155 226 233 98
129 146 263 125 347 -13 50 -24 23 -28 -68z"/>
<path d="M3998 2460 c4 -98 -1 -113 -26 -88 -9 9 -12 8 -12 -5 0 -9 4 -17 9
-17 23 0 41 -34 41 -76 0 -38 -3 -44 -20 -44 -14 0 -20 -6 -18 -16 2 -10 -9
-23 -29 -33 -30 -15 -46 -51 -23 -51 5 0 9 -20 8 -45 -2 -35 -6 -45 -18 -43
-11 2 -17 20 -21 63 -4 45 -6 51 -9 25 -1 -19 -4 -46 -5 -59 -1 -14 -10 -30
-19 -36 -14 -11 -12 -14 16 -25 55 -20 69 -26 169 -69 53 -22 105 -43 115 -47
18 -5 18 -5 1 9 -10 8 -17 19 -16 23 4 25 -5 31 -45 30 -55 0 -96 25 -96 59 0
14 5 25 10 25 6 0 10 -4 10 -10 0 -5 5 -10 10 -10 6 0 10 17 10 38 0 73 16 93
75 96 14 1 21 9 23 29 3 26 25 37 37 17 3 -5 -1 -10 -11 -10 -12 0 -9 -6 12
-22 16 -13 31 -26 32 -30 7 -16 22 -7 22 12 0 11 5 20 10 20 6 0 10 12 10 26
0 20 -4 24 -19 19 -25 -8 -38 13 -18 28 9 7 19 25 23 41 6 26 5 28 -8 15 -9
-7 -14 -18 -12 -24 3 -9 -61 -45 -81 -45 -5 0 -17 8 -28 18 -19 17 -19 16 -12
-25 6 -39 5 -44 -17 -52 -12 -5 -26 -6 -30 -2 -4 3 -12 89 -18 190 -6 101 -13
188 -16 192 -15 26 -20 -1 -16 -91z m236 -281 c-3 -5 -10 -7 -15 -3 -5 3 -7
10 -3 15 3 5 10 7 15 3 5 -3 7 -10 3 -15z m-214 -59 c0 -23 -3 -28 -17 -23
-13 5 -15 2 -11 -15 8 -29 -8 -38 -21 -13 -14 26 -14 44 1 35 7 -4 8 -3 4 5
-9 14 11 41 30 41 9 0 14 -11 14 -30z m-40 -104 c0 -3 -4 -8 -10 -11 -5 -3
-10 -1 -10 4 0 6 5 11 10 11 6 0 10 -2 10 -4z"/>
<path d="M2298 2536 c-10 -7 -16 -15 -14 -17 2 -2 -5 -12 -15 -23 -17 -18 -18
-17 -12 4 5 18 2 21 -13 18 -10 -2 -18 -10 -16 -18 2 -7 -2 -16 -9 -20 -8 -5
-5 -10 8 -14 11 -4 26 -18 33 -31 7 -14 19 -26 27 -26 22 -2 27 -4 63 -24 19
-11 38 -18 43 -17 4 1 7 -2 7 -7 0 -5 8 -7 18 -5 9 3 41 -2 70 -9 28 -8 52
-11 52 -8 0 13 57 29 95 26 22 -1 51 3 65 10 14 8 44 22 67 32 42 18 59 46 47
78 -9 22 -26 14 -42 -18 -7 -15 -20 -27 -28 -27 -8 0 -12 5 -9 10 11 17 -10
11 -33 -10 -22 -21 -48 -28 -37 -10 3 6 1 10 -6 10 -7 0 -21 8 -32 18 -11 9
-17 12 -14 6 10 -18 -14 -32 -50 -29 -18 1 -33 -3 -34 -9 0 -6 -4 -2 -9 9 -5
11 -9 14 -9 8 -1 -18 -14 -16 -38 7 -22 20 -22 20 -28 0 -8 -24 -18 -25 -39
-5 -8 8 -19 15 -25 15 -6 0 -11 4 -11 9 0 5 -9 13 -21 16 -16 6 -20 13 -17 36
5 31 -6 36 -34 15z"/>
<path d="M3210 2544 c0 -20 24 -44 45 -44 l24 0 -25 25 c-23 23 -44 32 -44 19z"/>
<path d="M3324 2511 c-4 -18 -15 -32 -28 -36 -19 -7 -18 -8 9 -14 17 -3 29
-10 28 -14 -2 -4 -3 -19 -3 -33 0 -19 -4 -25 -15 -20 -8 3 -15 1 -15 -5 0 -14
81 -161 86 -156 2 2 -3 23 -11 46 -13 37 -13 45 0 57 13 13 16 12 27 -6 16
-25 27 -25 44 -2 23 29 17 42 -18 40 -47 -4 -45 25 2 33 19 4 32 7 27 8 -4 0
-1 14 8 31 8 16 15 34 15 40 0 18 -18 11 -25 -10 -4 -13 -18 -23 -36 -27 -16
-3 -29 -9 -29 -14 0 -5 -4 -9 -10 -9 -14 0 -12 37 3 43 10 4 10 6 0 6 -7 1
-13 8 -13 16 0 8 -4 15 -10 15 -5 0 -10 9 -10 20 0 31 -20 24 -26 -9z m36
-152 c0 -24 -23 -21 -28 4 -2 10 3 17 12 17 10 0 16 -9 16 -21z"/>
<path d="M2529 2488 c-11 -8 -11 -9 3 -5 9 3 18 1 21 -6 2 -8 5 -8 10 0 9 15
-17 23 -34 11z"/>
<path d="M4397 2468 c-3 -12 -2 -30 4 -40 13 -24 1 -23 -27 3 -29 27 -44 17
-44 -27 0 -19 -4 -34 -9 -34 -5 0 -11 -10 -13 -22 -2 -13 -15 -29 -30 -36 -21
-10 -28 -20 -28 -43 0 -33 19 -39 27 -9 7 26 20 26 28 -1 4 -11 12 -18 18 -16
16 5 15 43 0 40 -18 -4 -16 12 2 27 19 16 25 10 30 -26 2 -16 4 -31 5 -34 2
-3 2 -8 1 -12 0 -5 6 -8 14 -8 8 0 15 7 15 15 0 8 7 15 15 15 20 0 19 36 -1
44 -8 3 -12 10 -9 16 4 6 10 8 14 5 11 -6 43 30 34 38 -3 4 -11 3 -17 -2 -6
-4 -24 -11 -39 -15 -44 -10 -29 14 24 41 24 12 36 23 27 23 -21 0 -24 16 -5
24 10 5 10 7 0 12 -7 3 -13 14 -13 25 0 26 -16 24 -23 -3z"/>
<path d="M5095 2410 c-3 -5 1 -10 9 -10 9 0 16 5 16 10 0 6 -4 10 -9 10 -6 0
-13 -4 -16 -10z"/>
<path d="M3850 2343 c0 -11 7 -26 15 -33 18 -15 20 -37 3 -42 -7 -3 -9 -11 -3
-24 4 -10 7 -29 6 -41 -1 -13 2 -23 8 -23 6 0 11 11 11 25 0 20 5 25 25 25 20
0 25 5 25 24 0 14 -4 28 -10 31 -5 3 -10 22 -10 41 0 37 -23 48 -35 17 -6 -17
-7 -17 -21 1 -14 19 -14 19 -14 -1z m60 -73 c0 -5 -4 -10 -10 -10 -5 0 -10 5
-10 10 0 6 5 10 10 10 6 0 10 -4 10 -10z"/>
<path d="M1990 2319 c0 -11 -4 -28 -10 -38 -16 -31 25 -156 76 -233 43 -64
147 -168 168 -168 10 0 -39 56 -85 97 -38 33 -106 150 -118 203 -6 25 -11 71
-11 103 0 31 -4 57 -10 57 -5 0 -10 -9 -10 -21z"/>
<path d="M2470 2320 c-13 -9 -13 -10 0 -10 8 0 22 5 30 10 13 9 13 10 0 10 -8
0 -22 -5 -30 -10z"/>
<path d="M4145 2250 c3 -5 8 -10 11 -10 2 0 4 5 4 10 0 6 -5 10 -11 10 -5 0
-7 -4 -4 -10z"/>
<path d="M3396 2196 c6 -15 44 -29 44 -17 0 11 -23 31 -37 31 -7 0 -10 -6 -7
-14z"/>
<path d="M4925 2130 c-5 -15 -12 -19 -26 -15 -21 7 -25 -10 -9 -35 7 -11 4
-17 -13 -22 l-22 -6 23 -7 c25 -8 30 -25 6 -25 -8 0 -13 -4 -9 -10 3 -5 13 -6
22 -3 12 5 15 2 10 -10 -6 -17 18 -44 27 -29 3 5 45 7 96 4 62 -3 90 -1 90 6
0 7 -35 12 -97 14 l-98 3 -2 43 c-1 24 5 55 13 70 16 32 17 42 5 42 -5 0 -13
-9 -16 -20z"/>
<path d="M4150 2120 c11 -20 30 -28 30 -12 0 11 -22 32 -32 32 -5 0 -4 -9 2
-20z"/>
<path d="M1202 2091 c4 -13 18 -16 19 -4 0 4 -5 9 -11 12 -7 2 -11 -2 -8 -8z"/>
<path d="M915 2060 c3 -5 8 -10 11 -10 2 0 4 5 4 10 0 6 -5 10 -11 10 -5 0 -7
-4 -4 -10z"/>
<path d="M1723 2020 c-12 -10 -24 -16 -27 -13 -3 4 -6 -3 -6 -14 0 -30 38 -18
51 15 12 33 7 36 -18 12z"/>
<path d="M1357 1991 c-8 -38 -2 -50 14 -34 8 8 8 20 2 39 l-10 29 -6 -34z"/>
<path d="M4050 2011 c0 -7 26 -11 73 -12 39 -1 104 -2 142 -4 467 -14 577 -16
572 -7 -4 5 -113 12 -244 16 -131 3 -307 9 -390 13 -112 4 -153 3 -153 -6z"/>
<path d="M4918 1926 c-22 -16 -23 -42 -2 -50 10 -4 14 -12 10 -22 -9 -24 13
-47 31 -33 10 9 17 9 25 1 18 -18 27 -14 21 8 -4 15 0 20 15 20 21 0 46 23 36
33 -4 3 -22 0 -40 -8 -25 -10 -34 -11 -34 -2 -1 7 -11 24 -23 39 -19 23 -24
25 -39 14z"/>
<path d="M4550 1915 c0 -4 5 -15 10 -26 9 -16 7 -19 -12 -19 -22 0 -22 -1 7
-24 32 -26 30 -45 -3 -27 -18 10 -19 9 -8 -14 14 -31 35 -40 43 -17 4 9 10 19
13 22 4 3 10 16 14 30 6 20 5 22 -4 10 -9 -12 -11 -7 -8 23 3 23 0 36 -6 34
-6 -3 -19 0 -28 5 -10 5 -18 6 -18 3z"/>
<path d="M1322 1888 c-20 -20 -15 -47 8 -41 12 3 18 12 17 24 -4 26 -11 31
-25 17z"/>
<path d="M4870 1840 c0 -5 4 -10 9 -10 6 0 13 5 16 10 3 6 -1 10 -9 10 -9 0
-16 -4 -16 -10z"/>
<path d="M2636 1814 c-40 -35 -28 -39 14 -3 19 15 31 28 25 28 -5 0 -23 -11
-39 -25z"/>
<path d="M5088 1784 c-3 -21 -2 -50 2 -64 l7 -25 11 22 c16 29 15 65 -2 88
-12 17 -14 15 -18 -21z"/>
<path d="M2335 1783 c17 -14 46 -41 65 -58 54 -50 79 -51 125 -8 l40 36 -37
-27 c-20 -14 -45 -26 -55 -26 -11 0 -48 25 -83 55 -65 54 -112 79 -55 28z"/>
<path d="M4932 1780 c0 -14 2 -19 5 -12 2 6 2 18 0 25 -3 6 -5 1 -5 -13z"/>
<path d="M4980 1786 c0 -2 16 -23 35 -46 38 -45 43 -45 20 0 -13 25 -55 60
-55 46z"/>
<path d="M4680 1755 c0 -18 19 -40 26 -32 4 4 0 15 -9 24 -9 10 -17 13 -17 8z"/>
<path d="M4743 1729 c-10 -12 -29 -33 -43 -47 l-25 -24 35 4 c28 2 34 7 32 21
-2 11 4 28 14 38 9 11 15 22 11 25 -3 3 -14 -4 -24 -17z"/>
<path d="M810 1711 c15 -28 26 -33 40 -16 10 12 9 15 -4 15 -9 0 -16 5 -16 10
0 6 -7 10 -15 10 -12 0 -14 -4 -5 -19z"/>
<path d="M4990 1711 c0 -13 9 -32 20 -41 14 -12 17 -21 10 -25 -14 -9 6 -35
26 -35 18 0 17 10 -1 34 -8 11 -15 26 -15 33 0 8 -9 23 -20 35 l-20 22 0 -23z"/>
<path d="M1 1654 c0 -11 3 -14 6 -6 3 7 2 16 -1 19 -3 4 -6 -2 -5 -13z"/>
<path d="M1037 1663 c-4 -3 -7 -15 -7 -25 0 -17 2 -18 15 -4 8 8 15 19 15 25
0 12 -13 15 -23 4z"/>
<path d="M5097 1648 c-14 -14 -16 -23 -8 -31 18 -18 13 -36 -9 -30 -26 7 -25
-1 5 -41 23 -30 24 -38 17 -92 -7 -53 -10 -59 -30 -57 -28 3 -29 -13 -1 -20
12 -3 19 -12 17 -19 -7 -21 -43 -20 -63 2 -10 11 -24 20 -32 20 -7 0 -13 10
-13 21 0 18 -2 19 -15 9 -12 -10 -18 -10 -30 0 -22 19 -31 4 -15 -26 13 -24
12 -27 -10 -45 -22 -16 -22 -19 -6 -19 12 0 16 -5 12 -16 -3 -9 -6 -27 -6 -40
0 -31 -18 -31 -26 1 -7 30 -34 55 -34 33 0 -26 22 -78 30 -73 18 11 31 -27 29
-84 -1 -34 1 -64 4 -68 4 -3 7 11 7 33 0 41 11 68 26 63 5 -1 10 5 12 13 2 10
-3 15 -15 14 -9 0 -19 7 -21 17 -5 24 25 22 39 -4 10 -20 12 -20 36 16 26 38
25 57 -2 35 -18 -15 -22 -13 -27 14 -3 16 4 19 50 21 56 2 59 -1 38 -48 -7
-18 -17 -50 -22 -71 -11 -49 -37 -68 -60 -44 -16 16 -18 15 -31 -10 -9 -17
-11 -28 -4 -30 16 -5 13 -40 -5 -50 -14 -8 -13 -17 1 -98 l17 -90 34 0 c25 1
34 5 34 19 0 9 4 17 9 17 13 0 25 -41 14 -49 -4 -3 -13 -19 -18 -35 -12 -37
-32 -45 -37 -15 -2 12 -9 24 -17 27 -10 3 -12 -3 -8 -24 3 -16 11 -71 18 -122
9 -62 16 -87 22 -77 9 18 27 11 27 -11 0 -8 -7 -14 -15 -14 -12 0 -14 -11 -8
-62 3 -35 10 -68 15 -75 5 -7 7 -17 3 -23 -10 -16 5 -111 16 -104 5 3 7 10 4
15 -4 5 -1 9 4 9 6 0 11 -9 11 -20 0 -13 5 -18 15 -14 22 9 18 -15 -9 -50 -19
-26 -22 -38 -17 -76 4 -28 9 -40 14 -32 5 6 19 12 32 12 24 0 24 2 24 85 -1
47 -5 82 -10 79 -12 -7 -11 3 1 26 7 14 5 19 -10 23 -15 4 -20 14 -20 41 0 28
3 34 16 29 14 -5 15 -3 5 15 -7 12 -16 22 -22 22 -5 0 -8 12 -7 27 2 23 -1 28
-20 29 -31 2 -40 14 -19 25 21 12 23 65 2 73 -9 3 -15 18 -15 36 0 16 -4 30
-10 30 -5 0 -10 7 -10 15 0 8 5 15 10 15 6 0 10 -4 10 -10 0 -5 7 -10 15 -10
8 0 15 -4 15 -10 0 -5 8 -10 18 -10 28 0 34 -11 17 -30 -9 -10 -13 -25 -9 -34
6 -16 8 -15 25 3 34 37 24 195 -15 222 -13 10 2 29 18 23 10 -4 14 13 15 74 1
66 -1 81 -15 86 -9 4 -14 12 -10 22 3 8 2 12 -4 9 -6 -3 -13 1 -16 10 -6 14
-8 14 -18 0 -7 -9 -16 -12 -25 -6 -11 7 -11 15 0 47 18 53 25 61 59 68 23 4
30 11 29 28 l0 23 -9 -22 c-6 -13 -18 -23 -30 -23 -23 0 -24 7 -8 60 10 31 17
39 30 34 12 -3 18 0 18 10 0 10 -6 13 -15 10 -10 -4 -15 0 -15 10 0 9 6 19 14
22 12 4 15 38 15 175 1 93 0 169 -1 168 -2 0 -11 -10 -21 -21z m-147 -319 c0
-11 -4 -17 -10 -14 -5 3 -10 13 -10 21 0 8 5 14 10 14 6 0 10 -9 10 -21z m90
-9 c0 -5 -4 -10 -10 -10 -5 0 -10 5 -10 10 0 6 5 10 10 10 6 0 10 -4 10 -10z
m-5 -310 c4 -17 12 -29 19 -28 6 2 13 0 14 -4 6 -20 0 -28 -18 -28 -23 0 -24
-4 -10 -31 8 -13 7 -19 0 -19 -6 0 -15 11 -20 24 -5 13 -14 27 -19 31 -14 8
-14 36 -1 70 12 32 26 26 35 -15z m-75 -36 c0 -8 -4 -14 -10 -14 -5 0 -10 9
-10 21 0 11 5 17 10 14 6 -3 10 -13 10 -21z m30 -79 c0 -18 -1 -18 -16 -3 -10
10 -14 23 -10 34 6 16 8 16 16 4 6 -8 10 -24 10 -35z m115 -135 c0 -7 -6 -15
-12 -17 -8 -3 -13 4 -13 17 0 13 5 20 13 18 6 -3 12 -11 12 -18z m-37 -393 c2
-10 -3 -17 -12 -17 -10 0 -16 9 -16 21 0 24 23 21 28 -4z m42 -161 c0 -3 -4
-8 -10 -11 -5 -3 -10 -1 -10 4 0 6 5 11 10 11 6 0 10 -2 10 -4z"/>
<path d="M891 1650 c-1 -18 16 -46 23 -40 2 3 -2 16 -9 30 -8 15 -14 19 -14
10z"/>
<path d="M4967 1646 c-6 -16 19 -30 28 -16 7 11 -2 30 -15 30 -4 0 -10 -6 -13
-14z"/>
<path d="M949 1620 c27 -23 47 -25 54 -6 4 10 0 12 -14 9 -10 -3 -19 0 -19 6
0 6 -10 11 -22 11 l-23 -1 24 -19z"/>
<path d="M4650 1628 c0 -7 9 -24 20 -38 16 -20 20 -22 20 -7 0 9 -9 26 -20 37
-12 12 -20 15 -20 8z"/>
<path d="M4760 1612 c0 -4 7 -18 17 -31 13 -19 14 -28 5 -42 -17 -27 -15 -52
3 -46 28 11 26 -13 -2 -25 -15 -7 -29 -13 -31 -14 -5 -3 67 -112 78 -119 5 -3
14 -4 19 -1 5 3 -7 22 -25 42 -38 40 -44 64 -14 64 15 0 20 7 20 28 0 32 16
53 36 45 8 -3 14 0 14 6 0 6 -8 11 -18 11 -26 0 -58 25 -44 34 17 11 14 29 -3
22 -9 -3 -20 3 -27 14 -13 20 -28 27 -28 12z"/>
<path d="M660 1306 c0 -8 5 -18 10 -21 6 -3 10 1 10 9 0 8 -4 18 -10 21 -5 3
-10 -1 -10 -9z"/>
<path d="M4980 1171 c0 -5 5 -13 10 -16 6 -3 10 -2 10 4 0 5 -4 13 -10 16 -5
3 -10 2 -10 -4z"/>
<path d="M5097 1104 c-3 -3 -3 -13 0 -21 5 -12 7 -12 14 -1 15 23 4 40 -14 22z"/>
<path d="M155 1090 c-3 -5 1 -10 10 -10 9 0 13 5 10 10 -3 6 -8 10 -10 10 -2
0 -7 -4 -10 -10z"/>
<path d="M13 1023 c-20 -8 -15 -33 6 -33 16 0 31 18 31 36 0 5 -21 4 -37 -3z"/>
<path d="M80 875 c0 -14 4 -25 10 -25 5 0 6 8 3 17 -5 12 -2 15 10 10 9 -3 17
-2 17 2 0 8 -23 21 -36 21 -2 0 -4 -11 -4 -25z"/>
<path d="M485 837 l6 -44 -83 4 c-76 4 -81 3 -64 -11 11 -9 35 -16 53 -16 23
0 33 -5 33 -15 0 -12 7 -14 26 -9 23 6 25 4 19 -15 -3 -12 -2 -21 4 -21 5 0
17 32 26 71 12 54 13 74 4 85 -21 25 -30 15 -24 -29z"/>
<path d="M0 760 c0 -8 31 -30 43 -30 3 0 7 8 9 18 4 13 -2 17 -24 19 -15 1
-28 -2 -28 -7z"/>
<path d="M6 574 c-11 -28 -6 -123 11 -224 14 -89 14 -102 1 -118 -18 -20 -26
-232 -10 -232 14 0 22 63 10 77 -12 15 -2 47 12 38 5 -3 10 -15 10 -26 0 -13
7 -19 23 -19 17 0 19 -2 8 -9 -12 -8 -12 -12 -2 -25 12 -14 10 -16 -8 -16 -38
0 -14 -16 27 -18 27 -2 41 2 45 12 7 18 -3 56 -14 56 -5 0 -9 6 -9 14 0 9 7
12 20 9 10 -3 19 -8 18 -12 0 -3 0 -17 1 -30 1 -20 3 -21 16 -11 12 10 13 16
4 26 -16 19 10 19 36 0 10 -7 27 -11 37 -8 11 3 18 -1 18 -11 0 -22 -31 -30
-44 -11 -11 15 -14 15 -29 -1 -30 -30 -19 -35 68 -34 47 1 85 6 85 11 0 4 -7
8 -16 8 -11 0 -14 8 -12 28 2 21 9 28 31 30 28 3 33 -8 29 -61 -1 -9 2 -17 7
-17 10 0 30 98 24 116 -3 8 -16 9 -41 3 -20 -4 -40 -5 -45 -2 -4 3 -17 -3 -28
-13 -18 -16 -21 -16 -35 -2 -15 15 -14 17 9 33 15 10 24 22 20 31 -3 8 -9 11
-14 8 -6 -3 -16 -1 -24 6 -17 14 -29 -3 -20 -30 5 -15 2 -20 -14 -21 -12 -1
-27 -2 -33 -3 -7 -1 -12 7 -10 17 2 10 -3 17 -13 17 -9 0 -15 7 -13 17 2 12
-5 18 -26 20 -40 3 -44 12 -16 33 14 11 23 20 20 20 -3 1 -18 3 -34 5 -16 2
-32 8 -36 12 -7 8 -30 159 -30 196 0 23 45 40 71 27 16 -9 19 -7 19 9 0 12 -5
19 -12 17 -7 -3 -28 -7 -46 -10 l-32 -6 3 45 c3 45 -5 59 -17 29z m54 -424 c0
-5 -4 -10 -10 -10 -5 0 -10 5 -10 10 0 6 5 10 10 10 6 0 10 -4 10 -10z"/>
<path d="M5030 283 c0 -4 5 -15 10 -23 8 -13 10 -13 10 2 0 9 -4 20 -10 23 -5
3 -10 3 -10 -2z"/>
<path d="M5112 123 c-2 -28 -10 -29 -28 -5 -7 9 -14 12 -14 5 0 -6 5 -15 10
-18 16 -10 12 -28 -5 -21 -11 4 -15 -2 -15 -23 0 -45 10 -61 36 -61 17 0 24 6
24 19 0 11 -6 22 -12 24 -10 4 -10 7 0 15 9 6 12 23 9 48 -2 21 -4 29 -5 17z"/>
</g>
</svg>
